<svg xmlns="http://www.w3.org/2000/svg" xmlns:xlink="http://www.w3.org/1999/xlink" width="500" zoomAndPan="magnify" viewBox="0 0 375 74.999997" height="100" preserveAspectRatio="xMidYMid meet" version="1.0"><defs><clipPath id="1a366a2024"><path d="M 3 3.027344 L 73 3.027344 L 73 72.027344 L 3 72.027344 Z M 3 3.027344 " clip-rule="nonzero"/></clipPath></defs><rect x="-37.5" width="450" fill="#ffffff" y="-7.5" height="89.999996" fill-opacity="1"/><g clip-path="url(#1a366a2024)"><path fill="#0c07cf" d="M 72.230469 35.765625 L 72.230469 3.027344 L 39.378906 3.027344 L 39.378906 19.515625 L 36.09375 19.515625 L 36.09375 3.027344 L 3.226562 3.027344 L 3.226562 35.765625 L 19.648438 35.765625 L 19.648438 39.273438 L 3.226562 39.273438 L 3.226562 72.007812 L 36.074219 72.007812 L 36.074219 55.523438 L 39.359375 55.523438 L 39.359375 72.007812 L 72.210938 72.007812 L 72.210938 39.273438 L 55.785156 39.273438 L 55.785156 35.765625 Z M 52.148438 51.878906 L 23.328125 51.878906 L 23.328125 23.175781 L 52.148438 23.175781 Z M 52.148438 51.878906 " fill-opacity="1" fill-rule="nonzero"/></g><path fill="#0c07cf" d="M 95.183594 53.847656 L 95.183594 21.074219 L 117.496094 21.074219 C 120.039062 21.074219 122.246094 21.421875 124.125 22.105469 C 126 22.808594 127.46875 23.878906 128.523438 25.339844 C 129.578125 26.800781 130.109375 28.691406 130.109375 30.992188 C 130.109375 32.550781 129.835938 33.855469 129.285156 34.945312 C 128.738281 36.019531 127.996094 36.894531 127.019531 37.578125 C 126.058594 38.257812 124.945312 38.765625 123.695312 39.117188 C 122.441406 39.46875 121.09375 39.703125 119.6875 39.796875 L 118.980469 39.390625 C 121.347656 39.429688 123.304688 39.625 124.828125 39.972656 C 126.351562 40.324219 127.488281 40.96875 128.25 41.902344 C 129.011719 42.839844 129.382812 44.203125 129.382812 46.035156 L 129.382812 53.828125 L 122.617188 53.828125 L 122.617188 46.480469 C 122.617188 45.234375 122.402344 44.261719 121.953125 43.578125 C 121.503906 42.898438 120.722656 42.410156 119.589844 42.136719 C 118.453125 41.863281 116.8125 41.726562 114.679688 41.726562 L 101.929688 41.726562 L 101.929688 53.828125 L 95.164062 53.828125 Z M 101.949219 36.484375 L 117.496094 36.484375 C 119.390625 36.484375 120.839844 36.039062 121.835938 35.121094 C 122.832031 34.207031 123.34375 32.980469 123.34375 31.417969 C 123.34375 29.859375 122.832031 28.808594 121.835938 28.027344 C 120.839844 27.25 119.390625 26.859375 117.496094 26.859375 L 101.949219 26.859375 Z M 101.949219 36.484375 " fill-opacity="1" fill-rule="nonzero"/><path fill="#0c07cf" d="M 158.382812 45.488281 L 164.777344 45.488281 C 164.503906 47.203125 163.777344 48.742188 162.625 50.085938 C 161.453125 51.433594 159.867188 52.503906 157.875 53.28125 C 155.878906 54.0625 153.433594 54.453125 150.5625 54.453125 C 147.335938 54.453125 144.5 53.945312 142.015625 52.914062 C 139.550781 51.878906 137.617188 50.398438 136.226562 48.429688 C 134.839844 46.480469 134.136719 44.105469 134.136719 41.339844 C 134.136719 38.570312 134.820312 36.195312 136.167969 34.226562 C 137.519531 32.257812 139.414062 30.738281 141.839844 29.683594 C 144.265625 28.632812 147.101562 28.105469 150.34375 28.105469 C 153.589844 28.105469 156.425781 28.632812 158.636719 29.683594 C 160.847656 30.738281 162.46875 32.316406 163.542969 34.421875 C 164.621094 36.523438 165.070312 39.214844 164.894531 42.488281 L 140.804688 42.488281 C 140.980469 43.773438 141.449219 44.941406 142.25 45.976562 C 143.050781 47.027344 144.128906 47.847656 145.496094 48.449219 C 146.863281 49.054688 148.507812 49.367188 150.402344 49.367188 C 152.496094 49.367188 154.257812 48.996094 155.664062 48.273438 C 157.070312 47.554688 157.972656 46.617188 158.382812 45.46875 Z M 150.050781 33.132812 C 147.609375 33.132812 145.632812 33.660156 144.109375 34.730469 C 142.582031 35.804688 141.605469 37.109375 141.15625 38.648438 L 158.324219 38.648438 C 158.148438 36.953125 157.34375 35.628906 155.917969 34.617188 C 154.472656 33.621094 152.515625 33.113281 150.050781 33.113281 Z M 150.050781 33.132812 " fill-opacity="1" fill-rule="nonzero"/><path fill="#0c07cf" d="M 182.277344 54.394531 C 179.773438 54.394531 177.484375 53.847656 175.453125 52.757812 C 173.398438 51.664062 171.777344 50.125 170.582031 48.160156 C 169.390625 46.191406 168.785156 43.890625 168.785156 41.300781 C 168.785156 38.707031 169.390625 36.3125 170.621094 34.363281 C 171.835938 32.414062 173.496094 30.875 175.570312 29.78125 C 177.660156 28.691406 180.007812 28.144531 182.648438 28.144531 C 185.5625 28.144531 187.90625 28.730469 189.6875 29.898438 C 191.464844 31.070312 192.757812 32.648438 193.578125 34.636719 C 194.398438 36.621094 194.789062 38.863281 194.789062 41.320312 C 194.789062 42.800781 194.554688 44.320312 194.085938 45.859375 C 193.617188 47.398438 192.875 48.820312 191.898438 50.105469 C 190.917969 51.414062 189.628906 52.445312 188.042969 53.242188 C 186.460938 54.042969 184.542969 54.433594 182.296875 54.433594 Z M 184.40625 49.328125 C 186.402344 49.328125 188.140625 48.996094 189.589844 48.3125 C 191.035156 47.632812 192.171875 46.695312 192.933594 45.46875 C 193.714844 44.261719 194.105469 42.859375 194.105469 41.261719 C 194.105469 39.546875 193.714844 38.082031 192.914062 36.875 C 192.113281 35.6875 190.996094 34.769531 189.570312 34.148438 C 188.121094 33.523438 186.402344 33.210938 184.40625 33.210938 C 181.59375 33.210938 179.402344 33.953125 177.855469 35.414062 C 176.292969 36.875 175.511719 38.824219 175.511719 41.261719 C 175.511719 42.878906 175.882812 44.28125 176.625 45.488281 C 177.367188 46.695312 178.40625 47.632812 179.753906 48.292969 C 181.082031 48.976562 182.648438 49.308594 184.40625 49.308594 Z M 194.105469 28.671875 L 200.714844 28.671875 L 200.714844 53.828125 L 194.574219 53.828125 C 194.398438 52.503906 194.28125 51.355469 194.222656 50.339844 C 194.164062 49.328125 194.125 48.332031 194.125 47.359375 L 194.125 28.671875 Z M 194.105469 28.671875 " fill-opacity="1" fill-rule="nonzero"/><path fill="#0c07cf" d="M 207.988281 20.605469 L 214.597656 20.605469 L 214.597656 53.847656 L 207.988281 53.847656 Z M 207.988281 20.605469 " fill-opacity="1" fill-rule="nonzero"/><path fill="#0c07cf" d="M 229.417969 20.683594 L 264.070312 20.683594 L 264.070312 26.292969 L 229.417969 26.292969 Z M 243.402344 25.59375 L 250.164062 25.59375 L 250.164062 53.847656 L 243.402344 53.847656 Z M 243.402344 25.59375 " fill-opacity="1" fill-rule="nonzero"/><path fill="#0c07cf" d="M 275.15625 20.605469 L 275.15625 26.371094 L 268.546875 26.371094 L 268.546875 20.605469 Z M 268.546875 30.445312 L 275.15625 30.445312 L 275.15625 53.847656 L 268.546875 53.847656 Z M 268.546875 30.445312 " fill-opacity="1" fill-rule="nonzero"/><path fill="#0c07cf" d="M 281.746094 28.671875 L 288.355469 28.671875 L 288.355469 53.828125 L 281.746094 53.828125 Z M 300.085938 28.105469 C 301.648438 28.105469 303.078125 28.300781 304.40625 28.710938 C 305.738281 29.121094 306.871094 29.742188 307.867188 30.582031 C 308.847656 31.417969 309.609375 32.492188 310.15625 33.796875 C 310.703125 35.101562 310.976562 36.640625 310.976562 38.433594 L 310.976562 53.828125 L 304.367188 53.828125 L 304.367188 39.605469 C 304.367188 37.480469 303.859375 35.921875 302.824219 34.925781 C 301.789062 33.933594 300.105469 33.425781 297.757812 33.425781 C 296 33.425781 294.414062 33.757812 292.988281 34.441406 C 291.5625 35.121094 290.40625 35.960938 289.527344 36.992188 C 288.648438 38.027344 288.140625 39.097656 288.003906 40.207031 L 287.941406 37.617188 C 288.121094 36.425781 288.511719 35.277344 289.117188 34.167969 C 289.722656 33.054688 290.542969 32.023438 291.582031 31.109375 C 292.617188 30.171875 293.847656 29.453125 295.257812 28.90625 C 296.683594 28.359375 298.285156 28.085938 300.085938 28.085938 Z M 322.082031 28.105469 C 323.648438 28.105469 325.074219 28.300781 326.40625 28.710938 C 327.734375 29.121094 328.867188 29.742188 329.867188 30.582031 C 330.84375 31.417969 331.625 32.492188 332.171875 33.796875 C 332.742188 35.101562 333.015625 36.640625 333.015625 38.433594 L 333.015625 53.828125 L 326.40625 53.828125 L 326.40625 39.605469 C 326.40625 37.480469 325.878906 35.921875 324.820312 34.925781 C 323.765625 33.933594 322.082031 33.425781 319.738281 33.425781 C 317.976562 33.425781 316.394531 33.757812 314.964844 34.441406 C 313.539062 35.121094 312.386719 35.960938 311.503906 36.992188 C 310.625 38.027344 310.136719 39.097656 310.039062 40.207031 L 309.941406 37.480469 C 310.117188 36.371094 310.507812 35.257812 311.152344 34.148438 C 311.796875 33.035156 312.640625 32.023438 313.695312 31.109375 C 314.75 30.191406 315.964844 29.472656 317.371094 28.925781 C 318.777344 28.378906 320.34375 28.105469 322.0625 28.105469 Z M 322.082031 28.105469 " fill-opacity="1" fill-rule="nonzero"/><path fill="#0c07cf" d="M 361.113281 45.488281 L 367.507812 45.488281 C 367.234375 47.203125 366.507812 48.742188 365.355469 50.085938 C 364.183594 51.433594 362.597656 52.503906 360.605469 53.28125 C 358.609375 54.0625 356.164062 54.453125 353.289062 54.453125 C 350.066406 54.453125 347.230469 53.945312 344.746094 52.914062 C 342.28125 51.878906 340.347656 50.398438 338.957031 48.429688 C 337.570312 46.480469 336.867188 44.105469 336.867188 41.339844 C 336.867188 38.570312 337.550781 36.195312 338.898438 34.226562 C 340.25 32.257812 342.144531 30.738281 344.570312 29.683594 C 346.996094 28.632812 349.828125 28.105469 353.074219 28.105469 C 356.320312 28.105469 359.15625 28.632812 361.367188 29.683594 C 363.574219 30.738281 365.199219 32.316406 366.273438 34.421875 C 367.351562 36.523438 367.800781 39.214844 367.625 42.488281 L 343.535156 42.488281 C 343.710938 43.773438 344.179688 44.941406 344.980469 45.976562 C 345.78125 47.027344 346.859375 47.847656 348.226562 48.449219 C 349.59375 49.054688 351.238281 49.367188 353.132812 49.367188 C 355.226562 49.367188 356.988281 48.996094 358.394531 48.273438 C 359.800781 47.554688 360.703125 46.617188 361.113281 45.46875 Z M 352.78125 33.132812 C 350.339844 33.132812 348.363281 33.660156 346.839844 34.730469 C 345.3125 35.804688 344.335938 37.109375 343.886719 38.648438 L 361.054688 38.648438 C 360.878906 36.953125 360.074219 35.628906 358.648438 34.617188 C 357.203125 33.621094 355.246094 33.113281 352.78125 33.113281 Z M 352.78125 33.132812 " fill-opacity="1" fill-rule="nonzero"/></svg>