<svg xmlns="http://www.w3.org/2000/svg" xmlns:xlink="http://www.w3.org/1999/xlink" width="500" zoomAndPan="magnify" viewBox="0 0 375 74.999997" height="100" preserveAspectRatio="xMidYMid meet" version="1.0"><defs><clipPath id="d2591f6e34"><path d="M 3 3.027344 L 73 3.027344 L 73 72.027344 L 3 72.027344 Z M 3 3.027344 " clip-rule="nonzero"/></clipPath></defs><g clip-path="url(#d2591f6e34)"><path fill="#ffffff" d="M 72.261719 35.894531 L 72.261719 3.027344 L 39.398438 3.027344 L 39.398438 19.578125 L 36.109375 19.578125 L 36.109375 3.027344 L 3.226562 3.027344 L 3.226562 35.894531 L 19.660156 35.894531 L 19.660156 39.414062 L 3.226562 39.414062 L 3.226562 72.277344 L 36.089844 72.277344 L 36.089844 55.730469 L 39.378906 55.730469 L 39.378906 72.277344 L 72.242188 72.277344 L 72.242188 39.414062 L 55.808594 39.414062 L 55.808594 35.894531 Z M 52.171875 52.070312 L 23.335938 52.070312 L 23.335938 23.253906 L 52.171875 23.253906 Z M 52.171875 52.070312 " fill-opacity="1" fill-rule="nonzero"/></g><path fill="#ffffff" d="M 95.226562 54.046875 L 95.226562 21.144531 L 117.546875 21.144531 C 120.089844 21.144531 122.300781 21.496094 124.179688 22.179688 C 126.058594 22.882812 127.523438 23.960938 128.582031 25.425781 C 129.636719 26.894531 130.164062 28.792969 130.164062 31.101562 C 130.164062 32.664062 129.890625 33.976562 129.34375 35.070312 C 128.796875 36.148438 128.050781 37.027344 127.074219 37.710938 C 126.117188 38.398438 125 38.90625 123.75 39.257812 C 122.496094 39.609375 121.148438 39.84375 119.738281 39.941406 L 119.035156 39.53125 C 121.402344 39.570312 123.359375 39.765625 124.882812 40.117188 C 126.410156 40.46875 127.542969 41.117188 128.308594 42.054688 C 129.070312 42.992188 129.441406 44.363281 129.441406 46.203125 L 129.441406 54.027344 L 122.671875 54.027344 L 122.671875 46.652344 C 122.671875 45.398438 122.457031 44.421875 122.007812 43.738281 C 121.558594 43.050781 120.777344 42.5625 119.640625 42.289062 C 118.507812 42.015625 116.863281 41.878906 114.730469 41.878906 L 101.976562 41.878906 L 101.976562 54.027344 L 95.207031 54.027344 Z M 101.996094 36.617188 L 117.546875 36.617188 C 119.445312 36.617188 120.894531 36.167969 121.890625 35.246094 C 122.886719 34.328125 123.398438 33.09375 123.398438 31.53125 C 123.398438 29.964844 122.886719 28.910156 121.890625 28.125 C 120.894531 27.34375 119.445312 26.953125 117.546875 26.953125 L 101.996094 26.953125 Z M 101.996094 36.617188 " fill-opacity="1" fill-rule="nonzero"/><path fill="#ffffff" d="M 158.453125 45.65625 L 164.847656 45.65625 C 164.574219 47.375 163.851562 48.921875 162.695312 50.269531 C 161.523438 51.621094 159.9375 52.695312 157.945312 53.480469 C 155.949219 54.261719 153.503906 54.652344 150.628906 54.652344 C 147.398438 54.652344 144.5625 54.144531 142.078125 53.109375 C 139.613281 52.070312 137.675781 50.585938 136.289062 48.609375 C 134.898438 46.652344 134.195312 44.265625 134.195312 41.488281 C 134.195312 38.710938 134.878906 36.324219 136.230469 34.347656 C 137.578125 32.371094 139.476562 30.847656 141.902344 29.789062 C 144.328125 28.734375 147.164062 28.203125 150.410156 28.203125 C 153.660156 28.203125 156.496094 28.734375 158.707031 29.789062 C 160.917969 30.847656 162.539062 32.429688 163.617188 34.542969 C 164.691406 36.65625 165.140625 39.355469 164.964844 42.640625 L 140.867188 42.640625 C 141.042969 43.933594 141.511719 45.105469 142.3125 46.144531 C 143.117188 47.199219 144.191406 48.023438 145.5625 48.628906 C 146.929688 49.234375 148.574219 49.546875 150.472656 49.546875 C 152.5625 49.546875 154.324219 49.175781 155.734375 48.453125 C 157.140625 47.726562 158.042969 46.789062 158.453125 45.636719 Z M 150.117188 33.253906 C 147.671875 33.253906 145.699219 33.78125 144.171875 34.855469 C 142.644531 35.933594 141.667969 37.242188 141.21875 38.789062 L 158.394531 38.789062 C 158.21875 37.085938 157.414062 35.757812 155.988281 34.738281 C 154.539062 33.742188 152.582031 33.234375 150.117188 33.234375 Z M 150.117188 33.253906 " fill-opacity="1" fill-rule="nonzero"/><path fill="#ffffff" d="M 182.355469 54.59375 C 179.851562 54.59375 177.5625 54.046875 175.53125 52.949219 C 173.476562 51.855469 171.851562 50.308594 170.660156 48.335938 C 169.464844 46.359375 168.859375 44.050781 168.859375 41.449219 C 168.859375 38.847656 169.464844 36.441406 170.699219 34.484375 C 171.910156 32.527344 173.574219 30.984375 175.648438 29.886719 C 177.742188 28.792969 180.085938 28.246094 182.730469 28.246094 C 185.644531 28.246094 187.992188 28.832031 189.769531 30.003906 C 191.550781 31.179688 192.84375 32.761719 193.664062 34.757812 C 194.484375 36.753906 194.875 39.003906 194.875 41.46875 C 194.875 42.953125 194.640625 44.480469 194.171875 46.027344 C 193.703125 47.570312 192.960938 49 191.980469 50.289062 C 191.003906 51.601562 189.710938 52.636719 188.128906 53.441406 C 186.542969 54.242188 184.625 54.632812 182.375 54.632812 Z M 184.488281 49.507812 C 186.484375 49.507812 188.226562 49.175781 189.671875 48.492188 C 191.121094 47.804688 192.253906 46.867188 193.019531 45.636719 C 193.800781 44.421875 194.191406 43.011719 194.191406 41.410156 C 194.191406 39.6875 193.800781 38.222656 193 37.007812 C 192.195312 35.816406 191.082031 34.894531 189.652344 34.269531 C 188.207031 33.644531 186.484375 33.332031 184.488281 33.332031 C 181.671875 33.332031 179.480469 34.074219 177.9375 35.539062 C 176.371094 37.007812 175.589844 38.964844 175.589844 41.410156 C 175.589844 43.03125 175.960938 44.441406 176.703125 45.65625 C 177.445312 46.867188 178.484375 47.804688 179.832031 48.472656 C 181.164062 49.15625 182.730469 49.488281 184.488281 49.488281 Z M 194.191406 28.773438 L 200.804688 28.773438 L 200.804688 54.027344 L 194.660156 54.027344 C 194.484375 52.695312 194.367188 51.542969 194.308594 50.527344 C 194.25 49.507812 194.210938 48.511719 194.210938 47.53125 L 194.210938 28.773438 Z M 194.191406 28.773438 " fill-opacity="1" fill-rule="nonzero"/><path fill="#ffffff" d="M 208.082031 20.671875 L 214.691406 20.671875 L 214.691406 54.046875 L 208.082031 54.046875 Z M 208.082031 20.671875 " fill-opacity="1" fill-rule="nonzero"/><path fill="#ffffff" d="M 229.519531 20.75 L 264.183594 20.75 L 264.183594 26.386719 L 229.519531 26.386719 Z M 243.507812 25.679688 L 250.277344 25.679688 L 250.277344 54.046875 L 243.507812 54.046875 Z M 243.507812 25.679688 " fill-opacity="1" fill-rule="nonzero"/><path fill="#ffffff" d="M 275.277344 20.671875 L 275.277344 26.464844 L 268.664062 26.464844 L 268.664062 20.671875 Z M 268.664062 30.550781 L 275.277344 30.550781 L 275.277344 54.046875 L 268.664062 54.046875 Z M 268.664062 30.550781 " fill-opacity="1" fill-rule="nonzero"/><path fill="#ffffff" d="M 281.871094 28.773438 L 288.480469 28.773438 L 288.480469 54.027344 L 281.871094 54.027344 Z M 300.21875 28.203125 C 301.785156 28.203125 303.210938 28.402344 304.542969 28.8125 C 305.871094 29.222656 307.007812 29.847656 308.003906 30.6875 C 308.984375 31.53125 309.746094 32.605469 310.292969 33.917969 C 310.839844 35.226562 311.113281 36.773438 311.113281 38.574219 L 311.113281 54.027344 L 304.503906 54.027344 L 304.503906 39.746094 C 304.503906 37.613281 303.996094 36.050781 302.957031 35.050781 C 301.921875 34.054688 300.238281 33.546875 297.890625 33.546875 C 296.128906 33.546875 294.546875 33.878906 293.117188 34.5625 C 291.691406 35.246094 290.535156 36.089844 289.65625 37.125 C 288.773438 38.164062 288.265625 39.238281 288.128906 40.351562 L 288.070312 37.75 C 288.246094 36.558594 288.636719 35.402344 289.246094 34.289062 C 289.851562 33.175781 290.671875 32.136719 291.710938 31.21875 C 292.746094 30.277344 293.980469 29.554688 295.386719 29.007812 C 296.816406 28.460938 298.417969 28.183594 300.21875 28.183594 Z M 322.226562 28.203125 C 323.792969 28.203125 325.21875 28.402344 326.550781 28.8125 C 327.878906 29.222656 329.015625 29.847656 330.011719 30.6875 C 330.988281 31.53125 331.773438 32.605469 332.320312 33.917969 C 332.886719 35.226562 333.160156 36.773438 333.160156 38.574219 L 333.160156 54.027344 L 326.550781 54.027344 L 326.550781 39.746094 C 326.550781 37.613281 326.019531 36.050781 324.964844 35.050781 C 323.910156 34.054688 322.226562 33.546875 319.878906 33.546875 C 318.117188 33.546875 316.535156 33.878906 315.105469 34.5625 C 313.675781 35.246094 312.523438 36.089844 311.644531 37.125 C 310.761719 38.164062 310.273438 39.238281 310.175781 40.351562 L 310.078125 37.613281 C 310.253906 36.5 310.644531 35.382812 311.292969 34.269531 C 311.9375 33.152344 312.777344 32.136719 313.835938 31.21875 C 314.890625 30.296875 316.101562 29.574219 317.511719 29.027344 C 318.921875 28.480469 320.484375 28.203125 322.207031 28.203125 Z M 322.226562 28.203125 " fill-opacity="1" fill-rule="nonzero"/><path fill="#ffffff" d="M 361.273438 45.65625 L 367.667969 45.65625 C 367.394531 47.375 366.671875 48.921875 365.515625 50.269531 C 364.34375 51.621094 362.757812 52.695312 360.765625 53.480469 C 358.769531 54.261719 356.324219 54.652344 353.449219 54.652344 C 350.21875 54.652344 347.382812 54.144531 344.898438 53.109375 C 342.433594 52.070312 340.496094 50.585938 339.109375 48.609375 C 337.71875 46.652344 337.015625 44.265625 337.015625 41.488281 C 337.015625 38.710938 337.699219 36.324219 339.050781 34.347656 C 340.398438 32.371094 342.296875 30.847656 344.722656 29.789062 C 347.148438 28.734375 349.984375 28.203125 353.230469 28.203125 C 356.480469 28.203125 359.316406 28.734375 361.527344 29.789062 C 363.738281 30.847656 365.359375 32.429688 366.4375 34.542969 C 367.511719 36.65625 367.960938 39.355469 367.785156 42.640625 L 343.6875 42.640625 C 343.863281 43.933594 344.332031 45.105469 345.132812 46.144531 C 345.9375 47.199219 347.011719 48.023438 348.378906 48.628906 C 349.75 49.234375 351.394531 49.546875 353.289062 49.546875 C 355.382812 49.546875 357.144531 49.175781 358.554688 48.453125 C 359.960938 47.726562 360.863281 46.789062 361.273438 45.636719 Z M 352.9375 33.253906 C 350.492188 33.253906 348.519531 33.78125 346.992188 34.855469 C 345.464844 35.933594 344.488281 37.242188 344.039062 38.789062 L 361.214844 38.789062 C 361.039062 37.085938 360.234375 35.757812 358.808594 34.738281 C 357.359375 33.742188 355.402344 33.234375 352.9375 33.234375 Z M 352.9375 33.253906 " fill-opacity="1" fill-rule="nonzero"/></svg>