<svg xmlns="http://www.w3.org/2000/svg" xmlns:xlink="http://www.w3.org/1999/xlink" width="500" zoomAndPan="magnify" viewBox="0 0 375 195.000001" height="260" preserveAspectRatio="xMidYMid meet" version="1.0"><defs><clipPath id="879c91c29a"><path d="M 57 158 L 99 158 L 99 194.003906 L 57 194.003906 Z M 57 158 " clip-rule="nonzero"/></clipPath><clipPath id="1f1b28fd8d"><path d="M 328 158 L 370 158 L 370 194.003906 L 328 194.003906 Z M 328 158 " clip-rule="nonzero"/></clipPath></defs><path fill="#0c07cf" d="M 241.671875 51.472656 L 241.671875 0 L 190.171875 0 L 190.171875 25.910156 L 185.035156 25.910156 L 185.035156 0 L 133.53125 0 L 133.53125 51.472656 L 159.292969 51.472656 L 159.292969 56.996094 L 133.53125 56.996094 L 133.53125 108.46875 L 185.035156 108.46875 L 185.035156 82.539062 L 190.171875 82.539062 L 190.171875 108.46875 L 241.671875 108.46875 L 241.671875 56.996094 L 215.933594 56.996094 L 215.933594 51.472656 Z M 210.199219 76.789062 L 165.023438 76.789062 L 165.023438 31.660156 L 210.199219 31.660156 Z M 210.199219 76.789062 " fill-opacity="1" fill-rule="nonzero"/><path fill="#0c07cf" d="M 5.566406 193.183594 L 5.566406 149.285156 L 35.375 149.285156 C 38.765625 149.285156 41.722656 149.757812 44.226562 150.683594 C 46.734375 151.605469 48.707031 153.066406 50.105469 155.035156 C 51.5 157.007812 52.199219 159.53125 52.199219 162.589844 C 52.199219 164.664062 51.828125 166.429688 51.109375 167.886719 C 50.390625 169.347656 49.386719 170.515625 48.089844 171.421875 C 46.796875 172.324219 45.316406 173.023438 43.652344 173.492188 C 41.96875 173.964844 40.179688 174.273438 38.292969 174.417969 L 37.347656 173.882812 C 40.511719 173.925781 43.117188 174.191406 45.152344 174.664062 C 47.1875 175.136719 48.726562 176 49.734375 177.25 C 50.761719 178.503906 51.253906 180.332031 51.253906 182.773438 L 51.253906 193.226562 L 42.214844 193.226562 L 42.214844 183.390625 C 42.214844 181.726562 41.925781 180.414062 41.332031 179.488281 C 40.734375 178.566406 39.6875 177.90625 38.167969 177.558594 C 36.648438 177.191406 34.46875 177.023438 31.613281 177.023438 L 14.605469 177.023438 L 14.605469 193.246094 L 5.566406 193.246094 Z M 14.605469 169.902344 L 35.375 169.902344 C 37.902344 169.902344 39.851562 169.285156 41.1875 168.074219 C 42.523438 166.863281 43.179688 165.199219 43.179688 163.125 C 43.179688 161.050781 42.503906 159.613281 41.1875 158.585938 C 39.851562 157.539062 37.921875 157.027344 35.375 157.027344 L 14.605469 157.027344 L 14.605469 169.921875 Z M 14.605469 169.902344 " fill-opacity="1" fill-rule="nonzero"/><g clip-path="url(#879c91c29a)"><path fill="#0c07cf" d="M 90 181.992188 L 98.546875 181.992188 C 98.175781 184.292969 97.230469 186.367188 95.667969 188.175781 C 94.109375 189.980469 91.992188 191.417969 89.320312 192.445312 C 86.652344 193.492188 83.382812 194.003906 79.542969 194.003906 C 75.25 194.003906 71.449219 193.308594 68.140625 191.929688 C 64.832031 190.554688 62.265625 188.542969 60.394531 185.9375 C 58.546875 183.308594 57.621094 180.144531 57.621094 176.429688 C 57.621094 172.714844 58.527344 169.550781 60.335938 166.902344 C 62.140625 164.253906 64.667969 162.242188 67.894531 160.824219 C 71.121094 159.429688 74.921875 158.730469 79.277344 158.730469 C 83.632812 158.730469 87.390625 159.429688 90.347656 160.824219 C 93.285156 162.222656 95.464844 164.335938 96.902344 167.171875 C 98.320312 170.003906 98.9375 173.597656 98.710938 177.992188 L 66.539062 177.992188 C 66.765625 179.714844 67.402344 181.277344 68.46875 182.671875 C 69.539062 184.066406 70.976562 185.175781 72.804688 185.996094 C 74.632812 186.820312 76.832031 187.210938 79.359375 187.210938 C 82.171875 187.210938 84.515625 186.714844 86.382812 185.75 C 88.253906 184.785156 89.464844 183.511719 90.019531 181.992188 Z M 78.863281 165.445312 C 75.597656 165.445312 72.949219 166.164062 70.914062 167.582031 C 68.878906 168.996094 67.566406 170.761719 66.96875 172.835938 L 89.917969 172.835938 C 89.691406 170.578125 88.625 168.773438 86.691406 167.4375 C 84.761719 166.101562 82.152344 165.425781 78.84375 165.425781 Z M 78.863281 165.445312 " fill-opacity="1" fill-rule="nonzero"/></g><path fill="#0c07cf" d="M 121.945312 193.921875 C 118.597656 193.921875 115.554688 193.183594 112.824219 191.726562 C 110.089844 190.246094 107.914062 188.195312 106.3125 185.546875 C 104.707031 182.898438 103.90625 179.839844 103.90625 176.347656 C 103.90625 172.855469 104.730469 169.675781 106.351562 167.046875 C 107.976562 164.417969 110.195312 162.386719 112.96875 160.90625 C 115.742188 159.429688 118.90625 158.710938 122.4375 158.710938 C 126.320312 158.710938 129.464844 159.492188 131.847656 161.050781 C 134.230469 162.613281 135.957031 164.726562 137.042969 167.394531 C 138.132812 170.066406 138.667969 173.042969 138.667969 176.347656 C 138.667969 178.339844 138.359375 180.371094 137.722656 182.425781 C 137.085938 184.476562 136.121094 186.386719 134.804688 188.132812 C 133.492188 189.878906 131.765625 191.273438 129.648438 192.34375 C 127.511719 193.410156 124.964844 193.945312 121.984375 193.945312 Z M 124.800781 187.148438 C 127.472656 187.148438 129.773438 186.695312 131.722656 185.792969 C 133.675781 184.890625 135.15625 183.617188 136.203125 181.992188 C 137.25 180.371094 137.761719 178.484375 137.761719 176.367188 C 137.761719 174.070312 137.230469 172.097656 136.160156 170.496094 C 135.09375 168.894531 133.613281 167.664062 131.683594 166.839844 C 129.75 166 127.472656 165.589844 124.800781 165.589844 C 121.039062 165.589844 118.125 166.574219 116.046875 168.546875 C 113.972656 170.515625 112.925781 173.125 112.925781 176.390625 C 112.925781 178.566406 113.417969 180.453125 114.425781 182.054688 C 115.410156 183.65625 116.808594 184.910156 118.597656 185.8125 C 120.382812 186.714844 122.457031 187.167969 124.800781 187.167969 Z M 137.761719 159.46875 L 146.597656 159.46875 L 146.597656 193.183594 L 138.378906 193.183594 C 138.152344 191.417969 137.988281 189.859375 137.90625 188.503906 C 137.824219 187.148438 137.761719 185.8125 137.761719 184.5 Z M 137.761719 159.46875 " fill-opacity="1" fill-rule="nonzero"/><path fill="#0c07cf" d="M 156.273438 148.648438 L 165.105469 148.648438 L 165.105469 193.183594 L 156.273438 193.183594 Z M 156.273438 148.648438 " fill-opacity="1" fill-rule="nonzero"/><path fill="#0c07cf" d="M 184.929688 148.648438 L 231.238281 148.648438 L 231.238281 156.183594 L 184.929688 156.183594 Z M 203.605469 155.242188 L 212.644531 155.242188 L 212.644531 193.203125 L 203.605469 193.203125 Z M 203.605469 155.242188 " fill-opacity="1" fill-rule="nonzero"/><path fill="#0c07cf" d="M 246.027344 149.039062 L 246.027344 156.78125 L 237.195312 156.78125 L 237.195312 149.039062 Z M 237.195312 162.222656 L 246.027344 162.222656 L 246.027344 193.183594 L 237.195312 193.183594 Z M 237.195312 162.222656 " fill-opacity="1" fill-rule="nonzero"/><path fill="#0c07cf" d="M 254.863281 159.46875 L 263.695312 159.46875 L 263.695312 193.183594 L 254.863281 193.183594 Z M 279.371094 158.730469 C 281.445312 158.730469 283.375 159 285.144531 159.550781 C 286.910156 160.085938 288.449219 160.929688 289.765625 162.058594 C 291.082031 163.1875 292.085938 164.625 292.828125 166.371094 C 293.546875 168.113281 293.914062 170.1875 293.914062 172.570312 L 293.914062 193.203125 L 285.082031 193.203125 L 285.082031 174.128906 C 285.082031 171.277344 284.382812 169.183594 283.007812 167.847656 C 281.628906 166.511719 279.371094 165.835938 276.246094 165.835938 C 273.886719 165.835938 271.769531 166.289062 269.859375 167.191406 C 267.949219 168.09375 266.429688 169.242188 265.238281 170.621094 C 264.066406 171.996094 263.386719 173.433594 263.203125 174.929688 L 263.140625 171.460938 C 263.367188 169.878906 263.878906 168.339844 264.703125 166.839844 C 265.523438 165.34375 266.613281 163.988281 267.988281 162.734375 C 269.367188 161.484375 271.007812 160.519531 272.917969 159.777344 C 274.832031 159.058594 276.96875 158.691406 279.371094 158.691406 Z M 308.769531 158.730469 C 310.84375 158.730469 312.773438 159 314.542969 159.550781 C 316.308594 160.085938 317.847656 160.929688 319.164062 162.058594 C 320.476562 163.1875 321.503906 164.625 322.246094 166.371094 C 322.984375 168.113281 323.375 170.1875 323.375 172.570312 L 323.375 193.203125 L 314.542969 193.203125 L 314.542969 174.128906 C 314.542969 171.277344 313.84375 169.183594 312.445312 167.847656 C 311.046875 166.511719 308.789062 165.835938 305.667969 165.835938 C 303.304688 165.835938 301.1875 166.289062 299.277344 167.191406 C 297.367188 168.09375 295.847656 169.242188 294.65625 170.621094 C 293.484375 171.996094 292.828125 173.433594 292.683594 174.929688 L 292.539062 171.277344 C 292.765625 169.777344 293.300781 168.300781 294.160156 166.800781 C 295.023438 165.300781 296.15625 163.945312 297.550781 162.734375 C 298.949219 161.523438 300.59375 160.539062 302.480469 159.820312 C 304.351562 159.101562 306.445312 158.730469 308.769531 158.730469 Z M 308.769531 158.730469 " fill-opacity="1" fill-rule="nonzero"/><g clip-path="url(#1f1b28fd8d)"><path fill="#0c07cf" d="M 360.886719 181.992188 L 369.433594 181.992188 C 369.0625 184.292969 368.117188 186.367188 366.558594 188.175781 C 364.996094 189.980469 362.878906 191.417969 360.210938 192.445312 C 357.539062 193.492188 354.273438 194.003906 350.429688 194.003906 C 346.136719 194.003906 342.335938 193.308594 339.027344 191.929688 C 335.722656 190.554688 333.152344 188.542969 331.285156 185.9375 C 329.433594 183.308594 328.511719 180.144531 328.511719 176.429688 C 328.511719 172.714844 329.414062 169.550781 331.222656 166.902344 C 333.03125 164.253906 335.558594 162.242188 338.78125 160.824219 C 342.007812 159.429688 345.808594 158.730469 350.164062 158.730469 C 354.519531 158.730469 358.277344 159.429688 361.238281 160.824219 C 364.175781 162.222656 366.351562 164.335938 367.789062 167.171875 C 369.207031 170.003906 369.824219 173.597656 369.597656 177.992188 L 337.425781 177.992188 C 337.652344 179.714844 338.289062 181.277344 339.359375 182.671875 C 340.425781 184.066406 341.863281 185.175781 343.691406 185.996094 C 345.519531 186.820312 347.71875 187.210938 350.246094 187.210938 C 353.058594 187.210938 355.402344 186.714844 357.273438 185.75 C 359.140625 184.785156 360.351562 183.511719 360.90625 181.992188 Z M 349.753906 165.445312 C 346.488281 165.445312 343.835938 166.164062 341.800781 167.582031 C 339.769531 168.996094 338.453125 170.761719 337.859375 172.835938 L 360.804688 172.835938 C 360.578125 170.578125 359.511719 168.773438 357.578125 167.4375 C 355.648438 166.101562 353.039062 165.425781 349.730469 165.425781 Z M 349.753906 165.445312 " fill-opacity="1" fill-rule="nonzero"/></g></svg>