<svg xmlns="http://www.w3.org/2000/svg" xmlns:xlink="http://www.w3.org/1999/xlink" width="375" zoomAndPan="magnify" viewBox="0 0 281.25 74.999997" height="100" preserveAspectRatio="xMidYMid meet" version="1.0"><defs><clipPath id="0c0a1ae3b7"><path d="M 4 4.164062 L 72 4.164062 L 72 70.738281 L 4 70.738281 Z M 4 4.164062 " clip-rule="nonzero"/></clipPath></defs><g clip-path="url(#0c0a1ae3b7)"><path fill="#0c07cf" d="M 71.09375 35.753906 L 71.09375 4.164062 L 39.5 4.164062 L 39.5 20.078125 L 36.339844 20.078125 L 36.339844 4.164062 L 4.75 4.164062 L 4.75 35.753906 L 20.542969 35.753906 L 20.542969 39.136719 L 4.75 39.136719 L 4.75 70.722656 L 36.339844 70.722656 L 36.339844 54.808594 L 39.5 54.808594 L 39.5 70.722656 L 71.09375 70.722656 L 71.09375 39.136719 L 55.296875 39.136719 L 55.296875 35.753906 Z M 51.777344 51.289062 L 24.066406 51.289062 L 24.066406 23.597656 L 51.792969 23.597656 L 51.792969 51.304688 Z M 51.777344 51.289062 " fill-opacity="1" fill-rule="nonzero"/></g><path fill="#0c07cf" d="M 91.175781 35.753906 L 91.175781 14.019531 L 105.917969 14.019531 C 107.605469 14.019531 109.0625 14.242188 110.296875 14.710938 C 111.546875 15.175781 112.507812 15.882812 113.203125 16.859375 C 113.894531 17.839844 114.238281 19.085938 114.238281 20.605469 C 114.238281 21.628906 114.058594 22.515625 113.699219 23.222656 C 113.335938 23.945312 112.839844 24.515625 112.207031 24.96875 C 111.578125 25.417969 110.839844 25.75 110.011719 25.992188 C 109.183594 26.230469 108.296875 26.382812 107.363281 26.441406 L 106.898438 26.171875 C 108.460938 26.1875 109.757812 26.320312 110.765625 26.5625 C 111.773438 26.800781 112.523438 27.222656 113.035156 27.839844 C 113.53125 28.457031 113.789062 29.375 113.789062 30.578125 L 113.789062 35.753906 L 109.320312 35.753906 L 109.320312 30.878906 C 109.320312 30.050781 109.167969 29.40625 108.882812 28.953125 C 108.597656 28.503906 108.070312 28.171875 107.320312 27.992188 C 106.566406 27.808594 105.484375 27.71875 104.070312 27.71875 L 95.628906 27.71875 L 95.628906 35.753906 L 91.160156 35.753906 Z M 95.644531 24.230469 L 105.917969 24.230469 C 107.167969 24.230469 108.132812 23.929688 108.792969 23.328125 C 109.457031 22.726562 109.785156 21.898438 109.785156 20.875 C 109.785156 19.855469 109.457031 19.148438 108.792969 18.621094 C 108.132812 18.109375 107.167969 17.851562 105.917969 17.851562 L 95.644531 17.851562 Z M 95.644531 24.230469 " fill-opacity="1" fill-rule="nonzero"/><path fill="#0c07cf" d="M 132.96875 30.203125 L 137.195312 30.203125 C 137.015625 31.34375 136.535156 32.367188 135.765625 33.253906 C 135 34.15625 133.945312 34.851562 132.625 35.375 C 131.300781 35.886719 129.691406 36.144531 127.777344 36.144531 C 125.65625 36.144531 123.761719 35.796875 122.136719 35.121094 C 120.496094 34.445312 119.21875 33.449219 118.300781 32.140625 C 117.382812 30.847656 116.917969 29.269531 116.917969 27.433594 C 116.917969 25.597656 117.367188 24.019531 118.257812 22.710938 C 119.160156 21.402344 120.40625 20.394531 122.003906 19.703125 C 123.597656 19.011719 125.476562 18.664062 127.628906 18.664062 C 129.78125 18.664062 131.644531 19.011719 133.105469 19.703125 C 134.5625 20.394531 135.648438 21.449219 136.355469 22.847656 C 137.0625 24.246094 137.363281 26.035156 137.242188 28.203125 L 121.308594 28.203125 C 121.414062 29.058594 121.746094 29.824219 122.273438 30.519531 C 122.800781 31.210938 123.519531 31.765625 124.425781 32.15625 C 125.328125 32.5625 126.410156 32.757812 127.671875 32.757812 C 129.058594 32.757812 130.214844 32.519531 131.148438 32.035156 C 132.082031 31.554688 132.683594 30.9375 132.9375 30.171875 Z M 127.464844 22.003906 C 125.851562 22.003906 124.542969 22.351562 123.535156 23.058594 C 122.527344 23.765625 121.882812 24.636719 121.582031 25.660156 L 132.9375 25.660156 C 132.832031 24.546875 132.292969 23.644531 131.34375 22.980469 C 130.398438 22.320312 129.101562 21.988281 127.464844 21.988281 Z M 127.464844 22.003906 " fill-opacity="1" fill-rule="nonzero"/><path fill="#0c07cf" d="M 148.765625 36.113281 C 147.109375 36.113281 145.605469 35.753906 144.253906 35.015625 C 142.898438 34.292969 141.816406 33.269531 141.03125 31.960938 C 140.234375 30.652344 139.84375 29.132812 139.84375 27.40625 C 139.84375 25.675781 140.25 24.09375 141.046875 22.800781 C 141.859375 21.507812 142.945312 20.484375 144.328125 19.761719 C 145.710938 19.042969 147.261719 18.664062 149.019531 18.664062 C 150.945312 18.664062 152.496094 19.054688 153.667969 19.824219 C 154.84375 20.589844 155.699219 21.644531 156.242188 22.96875 C 156.785156 24.289062 157.054688 25.765625 157.054688 27.40625 C 157.054688 28.398438 156.902344 29.390625 156.589844 30.414062 C 156.273438 31.433594 155.792969 32.367188 155.144531 33.242188 C 154.496094 34.097656 153.640625 34.789062 152.585938 35.316406 C 151.535156 35.84375 150.269531 36.097656 148.796875 36.097656 Z M 150.179688 32.757812 C 151.503906 32.757812 152.648438 32.535156 153.609375 32.082031 C 154.574219 31.632812 155.308594 31.015625 155.820312 30.203125 C 156.332031 29.390625 156.589844 28.472656 156.589844 27.417969 C 156.589844 26.277344 156.316406 25.3125 155.804688 24.515625 C 155.28125 23.71875 154.542969 23.117188 153.59375 22.695312 C 152.648438 22.273438 151.503906 22.078125 150.179688 22.078125 C 148.3125 22.078125 146.871094 22.5625 145.847656 23.539062 C 144.824219 24.515625 144.296875 25.808594 144.296875 27.417969 C 144.296875 28.488281 144.539062 29.433594 145.035156 30.21875 C 145.53125 31.015625 146.222656 31.632812 147.09375 32.082031 C 147.984375 32.535156 149.007812 32.757812 150.164062 32.757812 Z M 156.601562 19.054688 L 160.964844 19.054688 L 160.964844 35.753906 L 156.902344 35.753906 C 156.800781 34.878906 156.707031 34.113281 156.664062 33.4375 C 156.617188 32.757812 156.601562 32.097656 156.601562 31.449219 Z M 156.601562 19.054688 " fill-opacity="1" fill-rule="nonzero"/><path fill="#0c07cf" d="M 165.765625 13.703125 L 170.128906 13.703125 L 170.128906 35.753906 L 165.765625 35.753906 Z M 165.765625 13.703125 " fill-opacity="1" fill-rule="nonzero"/><path fill="#0c07cf" d="M 179.9375 13.746094 L 202.847656 13.746094 L 202.847656 17.476562 L 179.9375 17.476562 Z M 189.171875 17.011719 L 193.640625 17.011719 L 193.640625 35.753906 L 189.171875 35.753906 Z M 189.171875 17.011719 " fill-opacity="1" fill-rule="nonzero"/><path fill="#0c07cf" d="M 210.175781 13.703125 L 210.175781 17.539062 L 205.8125 17.539062 L 205.8125 13.703125 Z M 205.8125 20.230469 L 210.175781 20.230469 L 210.175781 35.753906 L 205.8125 35.753906 Z M 205.8125 20.230469 " fill-opacity="1" fill-rule="nonzero"/><path fill="#0c07cf" d="M 214.539062 19.054688 L 218.902344 19.054688 L 218.902344 35.753906 L 214.539062 35.753906 Z M 226.664062 18.679688 C 227.6875 18.679688 228.648438 18.816406 229.523438 19.085938 C 230.394531 19.355469 231.160156 19.761719 231.808594 20.335938 C 232.457031 20.890625 232.96875 21.613281 233.3125 22.472656 C 233.675781 23.328125 233.855469 24.351562 233.855469 25.539062 L 233.855469 35.753906 L 229.492188 35.753906 L 229.492188 26.304688 C 229.492188 24.890625 229.144531 23.855469 228.46875 23.191406 C 227.792969 22.53125 226.679688 22.199219 225.128906 22.199219 C 223.972656 22.199219 222.917969 22.425781 221.96875 22.875 C 221.023438 23.328125 220.269531 23.882812 219.683594 24.578125 C 219.097656 25.253906 218.765625 25.976562 218.675781 26.710938 L 218.644531 24.996094 C 218.75 24.214844 219.019531 23.449219 219.414062 22.710938 C 219.820312 21.972656 220.359375 21.296875 221.039062 20.679688 C 221.714844 20.0625 222.527344 19.582031 223.472656 19.222656 C 224.421875 18.859375 225.476562 18.679688 226.664062 18.679688 Z M 241.210938 18.679688 C 242.234375 18.679688 243.195312 18.816406 244.070312 19.085938 C 244.941406 19.355469 245.710938 19.761719 246.355469 20.335938 C 247.003906 20.890625 247.515625 21.613281 247.890625 22.472656 C 248.265625 23.328125 248.449219 24.351562 248.449219 25.539062 L 248.449219 35.753906 L 244.085938 35.753906 L 244.085938 26.304688 C 244.085938 24.890625 243.738281 23.855469 243.046875 23.191406 C 242.355469 22.53125 241.226562 22.199219 239.691406 22.199219 C 238.535156 22.199219 237.480469 22.425781 236.53125 22.875 C 235.585938 23.328125 234.832031 23.882812 234.246094 24.578125 C 233.660156 25.253906 233.34375 25.976562 233.269531 26.710938 L 233.207031 24.890625 C 233.3125 24.15625 233.582031 23.417969 234.019531 22.679688 C 234.441406 21.945312 234.996094 21.265625 235.707031 20.664062 C 236.398438 20.0625 237.210938 19.582031 238.140625 19.222656 C 239.074219 18.859375 240.113281 18.679688 241.257812 18.679688 Z M 241.210938 18.679688 " fill-opacity="1" fill-rule="nonzero"/><path fill="#0c07cf" d="M 267.011719 30.203125 L 271.238281 30.203125 C 271.058594 31.34375 270.578125 32.367188 269.808594 33.253906 C 269.042969 34.15625 267.988281 34.851562 266.664062 35.375 C 265.34375 35.886719 263.730469 36.144531 261.820312 36.144531 C 259.699219 36.144531 257.804688 35.796875 256.179688 35.121094 C 254.539062 34.445312 253.261719 33.449219 252.34375 32.140625 C 251.425781 30.847656 250.960938 29.269531 250.960938 27.433594 C 250.960938 25.597656 251.410156 24.019531 252.296875 22.710938 C 253.203125 21.402344 254.449219 20.394531 256.042969 19.703125 C 257.640625 19.011719 259.519531 18.664062 261.671875 18.664062 C 263.824219 18.664062 265.6875 19.011719 267.148438 19.703125 C 268.605469 20.394531 269.691406 21.449219 270.398438 22.847656 C 271.105469 24.246094 271.40625 26.035156 271.285156 28.203125 L 255.351562 28.203125 C 255.457031 29.058594 255.789062 29.824219 256.316406 30.519531 C 256.84375 31.210938 257.5625 31.765625 258.46875 32.15625 C 259.371094 32.5625 260.453125 32.757812 261.714844 32.757812 C 263.101562 32.757812 264.257812 32.519531 265.191406 32.035156 C 266.125 31.554688 266.726562 30.9375 266.980469 30.171875 Z M 261.503906 22.003906 C 259.894531 22.003906 258.585938 22.351562 257.578125 23.058594 C 256.570312 23.765625 255.925781 24.636719 255.625 25.660156 L 266.980469 25.660156 C 266.875 24.546875 266.335938 23.644531 265.386719 22.980469 C 264.4375 22.320312 263.144531 21.988281 261.503906 21.988281 Z M 261.503906 22.003906 " fill-opacity="1" fill-rule="nonzero"/><path fill="#0c07cf" d="M 99.375 43.753906 C 99 43.40625 98.546875 43.136719 98.035156 42.957031 C 97.523438 42.777344 96.984375 42.6875 96.398438 42.6875 L 91.175781 42.6875 L 91.175781 55.367188 L 92.742188 55.367188 L 92.742188 50.882812 L 96.410156 50.882812 C 97 50.882812 97.539062 50.792969 98.050781 50.613281 C 98.5625 50.433594 99 50.160156 99.390625 49.816406 C 99.765625 49.46875 100.066406 49.035156 100.292969 48.523438 C 100.519531 48.011719 100.609375 47.4375 100.609375 46.792969 C 100.609375 46.144531 100.503906 45.558594 100.292969 45.0625 C 100.082031 44.566406 99.78125 44.128906 99.390625 43.769531 Z M 98.308594 48.671875 C 97.828125 49.152344 97.179688 49.410156 96.410156 49.410156 L 92.742188 49.410156 L 92.742188 44.144531 L 96.410156 44.144531 C 97.195312 44.144531 97.828125 44.386719 98.308594 44.851562 C 98.789062 45.332031 99.042969 45.964844 99.042969 46.777344 C 99.042969 47.589844 98.804688 48.191406 98.308594 48.671875 Z M 98.308594 48.671875 " fill-opacity="1" fill-rule="nonzero"/><path fill="#0c07cf" d="M 105.136719 46.507812 C 104.898438 46.824219 104.703125 47.152344 104.566406 47.5 C 104.445312 47.785156 104.371094 48.039062 104.308594 48.265625 L 104.308594 45.589844 L 102.746094 45.589844 L 102.746094 55.335938 L 104.308594 55.335938 L 104.308594 49.726562 C 104.402344 49.410156 104.535156 49.09375 104.714844 48.761719 C 104.972656 48.28125 105.316406 47.890625 105.769531 47.558594 C 106.222656 47.230469 106.777344 47.0625 107.4375 47.0625 L 107.4375 45.410156 C 106.914062 45.410156 106.445312 45.515625 106.070312 45.722656 C 105.695312 45.933594 105.378906 46.191406 105.136719 46.523438 Z M 105.136719 46.507812 " fill-opacity="1" fill-rule="nonzero"/><path fill="#0c07cf" d="M 117.488281 47.800781 C 117.050781 47.03125 116.464844 46.445312 115.742188 46.039062 C 115.023438 45.621094 114.238281 45.421875 113.410156 45.421875 C 112.585938 45.421875 111.800781 45.632812 111.066406 46.039062 C 110.34375 46.460938 109.742188 47.046875 109.304688 47.800781 C 108.851562 48.566406 108.628906 49.453125 108.628906 50.507812 C 108.628906 51.558594 108.855469 52.449219 109.304688 53.214844 C 109.757812 53.980469 110.34375 54.554688 111.066406 54.960938 C 111.785156 55.367188 112.570312 55.5625 113.410156 55.5625 C 114.253906 55.5625 115.023438 55.367188 115.742188 54.960938 C 116.464844 54.554688 117.050781 53.980469 117.488281 53.214844 C 117.925781 52.449219 118.152344 51.558594 118.152344 50.507812 C 118.152344 49.453125 117.925781 48.566406 117.488281 47.800781 Z M 116.136719 52.464844 C 115.832031 53.003906 115.441406 53.410156 114.960938 53.679688 C 114.480469 53.953125 113.96875 54.085938 113.425781 54.085938 C 112.886719 54.085938 112.359375 53.953125 111.863281 53.679688 C 111.367188 53.410156 110.976562 53.003906 110.660156 52.464844 C 110.359375 51.921875 110.207031 51.273438 110.207031 50.507812 C 110.207031 49.742188 110.359375 49.0625 110.675781 48.523438 C 110.988281 47.980469 111.382812 47.574219 111.878906 47.289062 C 112.359375 47.003906 112.886719 46.867188 113.425781 46.867188 C 113.96875 46.867188 114.480469 47.019531 114.960938 47.304688 C 115.441406 47.589844 115.832031 47.996094 116.136719 48.539062 C 116.4375 49.078125 116.585938 49.726562 116.585938 50.492188 C 116.585938 51.257812 116.4375 51.90625 116.136719 52.449219 Z M 116.136719 52.464844 " fill-opacity="1" fill-rule="nonzero"/><path fill="#0c07cf" d="M 131.089844 46.039062 C 130.425781 45.621094 129.628906 45.410156 128.679688 45.410156 C 127.777344 45.410156 126.980469 45.632812 126.257812 46.070312 C 125.539062 46.507812 124.980469 47.125 124.574219 47.890625 C 124.167969 48.65625 123.957031 49.53125 123.957031 50.507812 C 123.957031 51.484375 124.167969 52.359375 124.589844 53.109375 C 125.011719 53.875 125.582031 54.464844 126.320312 54.898438 C 127.042969 55.335938 127.871094 55.546875 128.773438 55.546875 C 129.523438 55.546875 130.1875 55.394531 130.773438 55.109375 C 131.34375 54.824219 131.824219 54.417969 132.171875 53.921875 C 132.519531 53.425781 132.757812 52.855469 132.863281 52.222656 L 131.40625 52.222656 C 131.238281 52.777344 130.921875 53.230469 130.457031 53.574219 C 129.992188 53.921875 129.433594 54.085938 128.773438 54.085938 C 128.171875 54.085938 127.644531 53.953125 127.175781 53.679688 C 126.710938 53.410156 126.335938 53.035156 126.050781 52.554688 C 125.761719 52.070312 125.582031 51.515625 125.523438 50.867188 L 132.9375 50.867188 C 133 49.679688 132.878906 48.6875 132.5625 47.875 C 132.246094 47.0625 131.75 46.445312 131.105469 46.023438 Z M 125.613281 49.484375 C 125.792969 48.671875 126.152344 48.039062 126.710938 47.574219 C 127.253906 47.109375 127.929688 46.867188 128.742188 46.867188 C 129.417969 46.867188 130.003906 47.09375 130.5 47.53125 C 131 47.964844 131.285156 48.628906 131.328125 49.484375 Z M 125.613281 49.484375 " fill-opacity="1" fill-rule="nonzero"/><path fill="#0c07cf" d="M 137.601562 47.304688 C 138.097656 47.019531 138.625 46.867188 139.183594 46.867188 C 139.875 46.867188 140.492188 47.078125 141.03125 47.5 C 141.574219 47.921875 141.964844 48.507812 142.175781 49.246094 L 143.605469 49.246094 C 143.5 48.445312 143.246094 47.769531 142.808594 47.199219 C 142.386719 46.628906 141.859375 46.191406 141.226562 45.875 C 140.597656 45.558594 139.90625 45.410156 139.167969 45.410156 C 138.339844 45.410156 137.558594 45.621094 136.820312 46.023438 C 136.097656 46.445312 135.496094 47.03125 135.058594 47.785156 C 134.609375 48.550781 134.382812 49.441406 134.382812 50.492188 C 134.382812 51.546875 134.609375 52.433594 135.058594 53.199219 C 135.511719 53.96875 136.097656 54.539062 136.820312 54.945312 C 137.542969 55.351562 138.324219 55.546875 139.167969 55.546875 C 139.90625 55.546875 140.597656 55.394531 141.226562 55.09375 C 141.859375 54.792969 142.402344 54.34375 142.824219 53.773438 C 143.246094 53.199219 143.5 52.507812 143.589844 51.695312 L 142.191406 51.695312 C 141.964844 52.449219 141.605469 53.035156 141.109375 53.457031 C 140.613281 53.875 139.964844 54.085938 139.167969 54.085938 C 138.59375 54.085938 138.070312 53.953125 137.574219 53.667969 C 137.089844 53.378906 136.683594 52.972656 136.398438 52.433594 C 136.097656 51.890625 135.949219 51.246094 135.949219 50.492188 C 135.949219 49.742188 136.097656 49.078125 136.398438 48.539062 C 136.699219 47.996094 137.089844 47.589844 137.585938 47.304688 Z M 137.601562 47.304688 " fill-opacity="1" fill-rule="nonzero"/><path fill="#0c07cf" d="M 148.554688 43.0625 L 147.003906 43.0625 L 147.003906 45.605469 L 144.914062 45.605469 L 144.914062 47.0625 L 147.003906 47.0625 L 147.003906 54.175781 L 145.90625 54.175781 L 145.90625 55.351562 L 148.554688 55.351562 L 148.554688 47.0625 L 150.644531 47.0625 L 150.644531 45.605469 L 148.554688 45.605469 Z M 148.554688 43.0625 " fill-opacity="1" fill-rule="nonzero"/><path fill="#0c07cf" d="M 163.914062 53.785156 L 158.453125 42.671875 L 156.890625 42.671875 L 156.890625 55.351562 L 158.453125 55.351562 L 158.453125 46.101562 L 163.132812 55.351562 L 164.683594 55.351562 L 169.375 46.085938 L 169.375 55.351562 L 170.925781 55.351562 L 170.925781 42.671875 L 169.375 42.671875 Z M 163.914062 53.785156 " fill-opacity="1" fill-rule="nonzero"/><path fill="#0c07cf" d="M 180.765625 48.296875 C 180.75 48.175781 180.71875 48.054688 180.6875 47.949219 C 180.507812 47.183594 180.191406 46.566406 179.710938 46.101562 C 179.230469 45.632812 178.539062 45.410156 177.636719 45.410156 C 176.808594 45.410156 176.054688 45.632812 175.378906 46.070312 C 174.703125 46.507812 174.175781 47.125 173.785156 47.890625 C 173.390625 48.65625 173.195312 49.53125 173.195312 50.507812 C 173.195312 51.484375 173.390625 52.359375 173.769531 53.109375 C 174.144531 53.875 174.671875 54.464844 175.304688 54.898438 C 175.949219 55.335938 176.65625 55.546875 177.425781 55.546875 C 178.148438 55.546875 178.71875 55.382812 179.183594 55.050781 C 179.636719 54.71875 179.996094 54.28125 180.253906 53.757812 C 180.476562 53.289062 180.644531 52.792969 180.75 52.28125 L 180.75 53.394531 C 180.75 53.605469 180.75 53.863281 180.792969 54.175781 C 180.824219 54.492188 180.855469 54.882812 180.882812 55.351562 L 182.3125 55.351562 L 182.3125 45.605469 L 180.75 45.605469 L 180.75 48.296875 Z M 180.449219 52.28125 C 180.238281 52.824219 179.921875 53.261719 179.484375 53.574219 C 179.050781 53.90625 178.507812 54.058594 177.832031 54.058594 C 177.242188 54.058594 176.71875 53.90625 176.265625 53.605469 C 175.800781 53.304688 175.4375 52.882812 175.167969 52.34375 C 174.898438 51.800781 174.761719 51.183594 174.761719 50.492188 C 174.761719 49.453125 175.03125 48.597656 175.558594 47.90625 C 176.085938 47.214844 176.851562 46.882812 177.816406 46.882812 C 178.460938 46.882812 179.003906 47.03125 179.441406 47.332031 C 179.875 47.632812 180.207031 48.054688 180.417969 48.597656 C 180.628906 49.140625 180.734375 49.769531 180.734375 50.476562 C 180.734375 51.125 180.628906 51.726562 180.417969 52.265625 Z M 180.449219 52.28125 " fill-opacity="1" fill-rule="nonzero"/><path fill="#0c07cf" d="M 192.226562 46.328125 C 191.941406 46.023438 191.597656 45.800781 191.175781 45.648438 C 190.753906 45.5 190.285156 45.410156 189.777344 45.410156 C 189.339844 45.410156 188.917969 45.5 188.511719 45.664062 C 188.121094 45.828125 187.757812 46.070312 187.457031 46.402344 C 187.15625 46.71875 186.902344 47.09375 186.691406 47.542969 C 186.570312 47.800781 186.480469 48.085938 186.40625 48.386719 L 186.40625 45.621094 L 184.839844 45.621094 L 184.839844 55.367188 L 186.40625 55.367188 L 186.40625 49.605469 C 186.496094 49.214844 186.644531 48.839844 186.84375 48.523438 C 187.128906 48.039062 187.503906 47.679688 187.96875 47.394531 C 188.421875 47.125 188.917969 46.988281 189.460938 46.988281 C 190.167969 46.988281 190.691406 47.183594 191.039062 47.558594 C 191.386719 47.9375 191.566406 48.507812 191.566406 49.257812 L 191.566406 55.382812 L 193.128906 55.382812 L 193.128906 48.867188 C 193.128906 48.339844 193.054688 47.859375 192.890625 47.4375 C 192.738281 47.019531 192.511719 46.65625 192.226562 46.355469 Z M 192.226562 46.328125 " fill-opacity="1" fill-rule="nonzero"/><path fill="#0c07cf" d="M 202.667969 48.296875 C 202.652344 48.175781 202.625 48.054688 202.59375 47.949219 C 202.414062 47.183594 202.097656 46.566406 201.617188 46.101562 C 201.132812 45.632812 200.441406 45.410156 199.539062 45.410156 C 198.710938 45.410156 197.960938 45.632812 197.28125 46.070312 C 196.605469 46.507812 196.078125 47.125 195.6875 47.890625 C 195.296875 48.65625 195.101562 49.53125 195.101562 50.507812 C 195.101562 51.484375 195.296875 52.359375 195.671875 53.109375 C 196.050781 53.875 196.574219 54.464844 197.207031 54.898438 C 197.855469 55.335938 198.5625 55.546875 199.328125 55.546875 C 200.050781 55.546875 200.621094 55.382812 201.089844 55.050781 C 201.539062 54.71875 201.902344 54.28125 202.15625 53.757812 C 202.382812 53.289062 202.546875 52.792969 202.652344 52.28125 L 202.652344 53.394531 C 202.652344 53.605469 202.652344 53.863281 202.699219 54.175781 C 202.730469 54.492188 202.757812 54.882812 202.789062 55.351562 L 204.21875 55.351562 L 204.21875 45.605469 L 202.652344 45.605469 L 202.652344 48.296875 Z M 202.351562 52.28125 C 202.140625 52.824219 201.824219 53.261719 201.390625 53.574219 C 200.953125 53.90625 200.410156 54.058594 199.734375 54.058594 C 199.148438 54.058594 198.621094 53.90625 198.171875 53.605469 C 197.703125 53.304688 197.34375 52.882812 197.070312 52.34375 C 196.800781 51.800781 196.664062 51.183594 196.664062 50.492188 C 196.664062 49.453125 196.9375 48.597656 197.464844 47.90625 C 197.988281 47.214844 198.757812 46.882812 199.71875 46.882812 C 200.367188 46.882812 200.90625 47.03125 201.34375 47.332031 C 201.78125 47.632812 202.113281 48.054688 202.324219 48.597656 C 202.53125 49.140625 202.636719 49.769531 202.636719 50.476562 C 202.636719 51.125 202.53125 51.726562 202.324219 52.265625 Z M 202.351562 52.28125 " fill-opacity="1" fill-rule="nonzero"/><path fill="#0c07cf" d="M 210.882812 45.453125 C 210.6875 45.421875 210.476562 45.410156 210.25 45.410156 C 209.527344 45.410156 208.867188 45.574219 208.265625 45.921875 C 207.648438 46.265625 207.167969 46.746094 206.773438 47.378906 C 206.398438 48.011719 206.203125 48.761719 206.203125 49.636719 C 206.203125 50.507812 206.398438 51.257812 206.773438 51.875 C 207.152344 52.492188 207.664062 52.972656 208.28125 53.304688 C 208.460938 53.394531 208.640625 53.472656 208.820312 53.546875 C 208.566406 53.546875 208.308594 53.546875 208.039062 53.589844 C 207.601562 53.652344 207.226562 53.816406 206.925781 54.074219 C 206.625 54.328125 206.472656 54.703125 206.472656 55.199219 C 206.472656 55.457031 206.519531 55.695312 206.625 55.90625 C 206.730469 56.117188 206.878906 56.285156 207.089844 56.433594 C 207.300781 56.570312 207.558594 56.691406 207.886719 56.75 C 208.203125 56.824219 208.582031 56.855469 209.015625 56.855469 L 210.972656 56.855469 C 211.695312 56.855469 212.222656 57.003906 212.582031 57.320312 C 212.945312 57.636719 213.125 58.132812 213.125 58.824219 L 213.125 59.261719 L 214.6875 59.261719 L 214.6875 58.449219 C 214.6875 57.667969 214.523438 57.050781 214.175781 56.597656 C 213.847656 56.148438 213.394531 55.832031 212.839844 55.636719 C 212.28125 55.441406 211.664062 55.351562 210.988281 55.351562 L 208.957031 55.351562 C 208.65625 55.351562 208.429688 55.289062 208.28125 55.171875 C 208.128906 55.050781 208.054688 54.882812 208.054688 54.6875 C 208.054688 54.359375 208.25 54.132812 208.625 54.027344 C 209 53.921875 209.558594 53.847656 210.25 53.816406 C 210.972656 53.816406 211.632812 53.652344 212.238281 53.320312 C 212.851562 52.988281 213.335938 52.507812 213.710938 51.890625 C 214.085938 51.273438 214.265625 50.523438 214.265625 49.648438 C 214.265625 49.152344 214.191406 48.703125 214.042969 48.28125 C 213.890625 47.859375 213.664062 47.484375 213.378906 47.136719 C 213.183594 46.914062 212.945312 46.703125 212.671875 46.523438 C 212.988281 46.6875 213.351562 46.835938 213.753906 46.988281 C 214.3125 47.199219 214.867188 47.304688 215.425781 47.304688 L 215.425781 45.621094 L 211.46875 45.621094 C 211.289062 45.558594 211.09375 45.5 210.898438 45.46875 Z M 212.371094 48.144531 C 212.597656 48.550781 212.71875 49.046875 212.71875 49.636719 C 212.71875 50.222656 212.597656 50.71875 212.371094 51.125 C 212.132812 51.53125 211.832031 51.832031 211.46875 52.042969 C 211.09375 52.253906 210.703125 52.359375 210.265625 52.359375 C 209.828125 52.359375 209.4375 52.253906 209.0625 52.042969 C 208.6875 51.832031 208.386719 51.53125 208.144531 51.125 C 207.902344 50.71875 207.796875 50.222656 207.796875 49.636719 C 207.796875 49.046875 207.917969 48.539062 208.144531 48.132812 C 208.386719 47.726562 208.6875 47.425781 209.0625 47.199219 C 209.4375 46.988281 209.84375 46.882812 210.265625 46.882812 C 210.6875 46.882812 211.09375 46.988281 211.46875 47.199219 C 211.84375 47.410156 212.144531 47.726562 212.371094 48.132812 Z M 212.371094 48.144531 " fill-opacity="1" fill-rule="nonzero"/><path fill="#0c07cf" d="M 223.835938 46.039062 C 223.171875 45.621094 222.375 45.410156 221.429688 45.410156 C 220.527344 45.410156 219.726562 45.632812 219.007812 46.070312 C 218.285156 46.507812 217.726562 47.125 217.320312 47.890625 C 216.914062 48.65625 216.703125 49.53125 216.703125 50.507812 C 216.703125 51.484375 216.914062 52.359375 217.335938 53.109375 C 217.757812 53.875 218.328125 54.464844 219.066406 54.898438 C 219.789062 55.335938 220.617188 55.546875 221.519531 55.546875 C 222.269531 55.546875 222.933594 55.394531 223.519531 55.109375 C 224.089844 54.824219 224.574219 54.417969 224.917969 53.921875 C 225.265625 53.425781 225.503906 52.855469 225.609375 52.222656 L 224.152344 52.222656 C 223.984375 52.777344 223.667969 53.230469 223.203125 53.574219 C 222.738281 53.921875 222.179688 54.085938 221.519531 54.085938 C 220.917969 54.085938 220.390625 53.953125 219.925781 53.679688 C 219.457031 53.410156 219.082031 53.035156 218.796875 52.554688 C 218.507812 52.070312 218.328125 51.515625 218.269531 50.867188 L 225.6875 50.867188 C 225.746094 49.679688 225.625 48.6875 225.308594 47.875 C 224.992188 47.0625 224.496094 46.445312 223.851562 46.023438 Z M 218.359375 49.484375 C 218.539062 48.671875 218.902344 48.039062 219.457031 47.574219 C 220 47.109375 220.675781 46.867188 221.488281 46.867188 C 222.164062 46.867188 222.753906 47.09375 223.25 47.53125 C 223.746094 47.964844 224.03125 48.628906 224.074219 49.484375 Z M 218.359375 49.484375 " fill-opacity="1" fill-rule="nonzero"/><path fill="#0c07cf" d="M 241.617188 46.328125 C 241.332031 46.023438 240.984375 45.800781 240.5625 45.648438 C 240.144531 45.5 239.675781 45.410156 239.164062 45.410156 C 238.730469 45.410156 238.308594 45.5 237.902344 45.664062 C 237.511719 45.828125 237.148438 46.070312 236.847656 46.402344 C 236.546875 46.71875 236.292969 47.09375 236.082031 47.542969 C 236.007812 47.710938 235.945312 47.875 235.886719 48.054688 C 235.839844 47.832031 235.796875 47.621094 235.71875 47.410156 C 235.570312 46.988281 235.34375 46.628906 235.058594 46.328125 C 234.773438 46.023438 234.425781 45.800781 234.003906 45.648438 C 233.582031 45.5 233.117188 45.410156 232.605469 45.410156 C 232.167969 45.410156 231.75 45.5 231.34375 45.664062 C 230.953125 45.828125 230.589844 46.070312 230.289062 46.402344 C 229.988281 46.71875 229.734375 47.09375 229.523438 47.542969 C 229.402344 47.800781 229.3125 48.085938 229.234375 48.386719 L 229.234375 45.621094 L 227.671875 45.621094 L 227.671875 55.367188 L 229.234375 55.367188 L 229.234375 49.605469 C 229.328125 49.214844 229.476562 48.839844 229.671875 48.523438 C 229.957031 48.039062 230.335938 47.679688 230.800781 47.394531 C 231.253906 47.125 231.75 46.988281 232.289062 46.988281 C 232.996094 46.988281 233.523438 47.183594 233.871094 47.558594 C 234.214844 47.9375 234.394531 48.507812 234.394531 49.257812 L 234.394531 55.382812 L 235.960938 55.382812 L 235.960938 49.109375 C 236.035156 48.898438 236.125 48.703125 236.246094 48.523438 C 236.53125 48.039062 236.910156 47.679688 237.375 47.394531 C 237.828125 47.125 238.324219 46.988281 238.863281 46.988281 C 239.570312 46.988281 240.097656 47.183594 240.445312 47.558594 C 240.789062 47.9375 240.96875 48.507812 240.96875 49.257812 L 240.96875 55.382812 L 242.535156 55.382812 L 242.535156 48.867188 C 242.535156 48.339844 242.460938 47.859375 242.292969 47.4375 C 242.144531 47.019531 241.917969 46.65625 241.632812 46.355469 Z M 241.617188 46.328125 " fill-opacity="1" fill-rule="nonzero"/><path fill="#0c07cf" d="M 251.621094 46.039062 C 250.960938 45.621094 250.164062 45.410156 249.214844 45.410156 C 248.3125 45.410156 247.515625 45.632812 246.792969 46.070312 C 246.070312 46.507812 245.515625 47.125 245.109375 47.890625 C 244.703125 48.65625 244.492188 49.53125 244.492188 50.507812 C 244.492188 51.484375 244.703125 52.359375 245.121094 53.109375 C 245.542969 53.875 246.117188 54.464844 246.851562 54.898438 C 247.574219 55.335938 248.402344 55.546875 249.304688 55.546875 C 250.058594 55.546875 250.71875 55.394531 251.304688 55.109375 C 251.878906 54.824219 252.359375 54.417969 252.703125 53.921875 C 253.050781 53.425781 253.292969 52.855469 253.398438 52.222656 L 251.9375 52.222656 C 251.773438 52.777344 251.457031 53.230469 250.988281 53.574219 C 250.523438 53.921875 249.96875 54.085938 249.304688 54.085938 C 248.703125 54.085938 248.175781 53.953125 247.710938 53.679688 C 247.242188 53.410156 246.867188 53.035156 246.582031 52.554688 C 246.296875 52.070312 246.117188 51.515625 246.054688 50.867188 L 253.472656 50.867188 C 253.53125 49.679688 253.410156 48.6875 253.097656 47.875 C 252.78125 47.0625 252.285156 46.445312 251.636719 46.023438 Z M 246.144531 49.484375 C 246.328125 48.671875 246.6875 48.039062 247.242188 47.574219 C 247.785156 47.109375 248.460938 46.867188 249.273438 46.867188 C 249.953125 46.867188 250.539062 47.09375 251.035156 47.53125 C 251.53125 47.964844 251.816406 48.628906 251.863281 49.484375 Z M 246.144531 49.484375 " fill-opacity="1" fill-rule="nonzero"/><path fill="#0c07cf" d="M 262.859375 46.328125 C 262.574219 46.023438 262.226562 45.800781 261.804688 45.648438 C 261.386719 45.5 260.917969 45.410156 260.40625 45.410156 C 259.972656 45.410156 259.550781 45.5 259.144531 45.664062 C 258.753906 45.828125 258.390625 46.070312 258.089844 46.402344 C 257.789062 46.71875 257.535156 47.09375 257.324219 47.542969 C 257.203125 47.800781 257.113281 48.085938 257.039062 48.386719 L 257.039062 45.621094 L 255.472656 45.621094 L 255.472656 55.367188 L 257.039062 55.367188 L 257.039062 49.605469 C 257.128906 49.214844 257.277344 48.839844 257.472656 48.523438 C 257.757812 48.039062 258.136719 47.679688 258.601562 47.394531 C 259.054688 47.125 259.550781 46.988281 260.089844 46.988281 C 260.796875 46.988281 261.324219 47.183594 261.671875 47.558594 C 262.015625 47.9375 262.199219 48.507812 262.199219 49.257812 L 262.199219 55.382812 L 263.761719 55.382812 L 263.761719 48.867188 C 263.761719 48.339844 263.6875 47.859375 263.523438 47.4375 C 263.371094 47.019531 263.144531 46.65625 262.859375 46.355469 Z M 262.859375 46.328125 " fill-opacity="1" fill-rule="nonzero"/><path fill="#0c07cf" d="M 271.34375 45.605469 L 269.253906 45.605469 L 269.253906 43.0625 L 267.6875 43.0625 L 267.6875 45.605469 L 265.597656 45.605469 L 265.597656 47.0625 L 267.6875 47.0625 L 267.6875 54.175781 L 266.605469 54.175781 L 266.605469 55.351562 L 269.253906 55.351562 L 269.253906 47.0625 L 271.34375 47.0625 Z M 271.34375 45.605469 " fill-opacity="1" fill-rule="nonzero"/><path fill="#0c07cf" d="M 120.300781 57.847656 C 120.300781 57.847656 120.257812 57.953125 120.195312 57.953125 L 118.152344 57.953125 L 118.152344 59.246094 L 120.902344 59.246094 C 121.429688 59.246094 121.867188 58.808594 121.867188 58.285156 L 121.867188 45.589844 L 120.300781 45.589844 Z M 120.300781 57.847656 " fill-opacity="1" fill-rule="nonzero"/><path fill="#0c07cf" d="M 120.257812 41.707031 L 121.851562 41.707031 L 121.851562 43.605469 L 120.257812 43.605469 Z M 120.257812 41.707031 " fill-opacity="1" fill-rule="nonzero"/></svg>