<svg xmlns="http://www.w3.org/2000/svg" xmlns:xlink="http://www.w3.org/1999/xlink" width="375" zoomAndPan="magnify" viewBox="0 0 281.25 74.999997" height="100" preserveAspectRatio="xMidYMid meet" version="1.0"><defs><clipPath id="99ad95289a"><path d="M 4 4.164062 L 72 4.164062 L 72 70.738281 L 4 70.738281 Z M 4 4.164062 " clip-rule="nonzero"/></clipPath></defs><g clip-path="url(#99ad95289a)"><path fill="#ffffff" d="M 71.175781 35.796875 L 71.175781 4.164062 L 39.542969 4.164062 L 39.542969 20.101562 L 36.382812 20.101562 L 36.382812 4.164062 L 4.75 4.164062 L 4.75 35.796875 L 20.566406 35.796875 L 20.566406 39.1875 L 4.75 39.1875 L 4.75 70.816406 L 36.382812 70.816406 L 36.382812 54.878906 L 39.542969 54.878906 L 39.542969 70.816406 L 71.175781 70.816406 L 71.175781 39.1875 L 55.359375 39.1875 L 55.359375 35.796875 Z M 51.835938 51.355469 L 24.089844 51.355469 L 24.089844 23.625 L 51.851562 23.625 L 51.851562 51.371094 Z M 51.835938 51.355469 " fill-opacity="1" fill-rule="nonzero"/></g><path fill="#ffffff" d="M 91.285156 35.796875 L 91.285156 14.03125 L 106.042969 14.03125 C 107.730469 14.03125 109.191406 14.257812 110.425781 14.722656 C 111.679688 15.191406 112.640625 15.898438 113.335938 16.878906 C 114.027344 17.855469 114.375 19.109375 114.375 20.628906 C 114.375 21.652344 114.191406 22.542969 113.832031 23.25 C 113.46875 23.972656 112.972656 24.546875 112.339844 24.996094 C 111.707031 25.449219 110.96875 25.78125 110.140625 26.019531 C 109.3125 26.261719 108.425781 26.414062 107.492188 26.472656 L 107.023438 26.203125 C 108.589844 26.21875 109.886719 26.351562 110.894531 26.59375 C 111.902344 26.835938 112.65625 27.257812 113.167969 27.875 C 113.667969 28.492188 113.921875 29.410156 113.921875 30.613281 L 113.921875 35.796875 L 109.449219 35.796875 L 109.449219 30.917969 C 109.449219 30.089844 109.296875 29.441406 109.011719 28.988281 C 108.726562 28.535156 108.199219 28.207031 107.445312 28.023438 C 106.691406 27.84375 105.609375 27.753906 104.191406 27.753906 L 95.742188 27.753906 L 95.742188 35.796875 L 91.269531 35.796875 Z M 95.757812 24.257812 L 106.042969 24.257812 C 107.292969 24.257812 108.257812 23.957031 108.921875 23.355469 C 109.585938 22.753906 109.914062 21.925781 109.914062 20.898438 C 109.914062 19.875 109.585938 19.167969 108.921875 18.640625 C 108.257812 18.128906 107.292969 17.871094 106.042969 17.871094 L 95.757812 17.871094 Z M 95.757812 24.257812 " fill-opacity="1" fill-rule="nonzero"/><path fill="#ffffff" d="M 133.125 30.238281 L 137.359375 30.238281 C 137.179688 31.382812 136.695312 32.40625 135.929688 33.296875 C 135.160156 34.199219 134.105469 34.894531 132.78125 35.421875 C 131.453125 35.933594 129.84375 36.1875 127.929688 36.1875 C 125.804688 36.1875 123.910156 35.839844 122.28125 35.164062 C 120.640625 34.484375 119.359375 33.492188 118.441406 32.179688 C 117.523438 30.886719 117.054688 29.304688 117.054688 27.46875 C 117.054688 25.628906 117.507812 24.046875 118.394531 22.738281 C 119.300781 21.425781 120.550781 20.417969 122.144531 19.726562 C 123.742188 19.03125 125.625 18.6875 127.78125 18.6875 C 129.933594 18.6875 131.800781 19.03125 133.261719 19.726562 C 134.722656 20.417969 135.808594 21.472656 136.515625 22.875 C 137.222656 24.273438 137.523438 26.066406 137.40625 28.234375 L 121.453125 28.234375 C 121.558594 29.09375 121.890625 29.863281 122.417969 30.554688 C 122.945312 31.246094 123.667969 31.804688 124.570312 32.195312 C 125.476562 32.601562 126.558594 32.800781 127.824219 32.800781 C 129.210938 32.800781 130.371094 32.558594 131.304688 32.074219 C 132.238281 31.59375 132.839844 30.976562 133.097656 30.207031 Z M 127.613281 22.03125 C 126.003906 22.03125 124.691406 22.375 123.683594 23.082031 C 122.671875 23.792969 122.027344 24.664062 121.722656 25.691406 L 133.097656 25.691406 C 132.992188 24.574219 132.449219 23.671875 131.5 23.007812 C 130.550781 22.347656 129.253906 22.015625 127.613281 22.015625 Z M 127.613281 22.03125 " fill-opacity="1" fill-rule="nonzero"/><path fill="#ffffff" d="M 148.941406 36.15625 C 147.285156 36.15625 145.777344 35.796875 144.421875 35.058594 C 143.066406 34.335938 141.984375 33.3125 141.199219 32 C 140.402344 30.691406 140.011719 29.167969 140.011719 27.4375 C 140.011719 25.703125 140.417969 24.125 141.214844 22.828125 C 142.027344 21.53125 143.113281 20.507812 144.5 19.785156 C 145.882812 19.0625 147.4375 18.6875 149.199219 18.6875 C 151.125 18.6875 152.675781 19.078125 153.851562 19.84375 C 155.027344 20.613281 155.886719 21.667969 156.429688 22.992188 C 156.96875 24.320312 157.242188 25.796875 157.242188 27.4375 C 157.242188 28.429688 157.089844 29.425781 156.773438 30.449219 C 156.457031 31.472656 155.976562 32.40625 155.328125 33.28125 C 154.679688 34.140625 153.824219 34.832031 152.769531 35.359375 C 151.714844 35.886719 150.449219 36.144531 148.972656 36.144531 Z M 150.359375 32.800781 C 151.683594 32.800781 152.828125 32.574219 153.792969 32.121094 C 154.757812 31.667969 155.496094 31.050781 156.007812 30.238281 C 156.519531 29.425781 156.773438 28.507812 156.773438 27.453125 C 156.773438 26.308594 156.503906 25.34375 155.992188 24.546875 C 155.464844 23.746094 154.726562 23.144531 153.777344 22.722656 C 152.828125 22.300781 151.683594 22.105469 150.359375 22.105469 C 148.488281 22.105469 147.042969 22.585938 146.019531 23.566406 C 144.996094 24.546875 144.46875 25.839844 144.46875 27.453125 C 144.46875 28.519531 144.710938 29.46875 145.207031 30.253906 C 145.703125 31.050781 146.398438 31.667969 147.269531 32.121094 C 148.160156 32.574219 149.183594 32.800781 150.34375 32.800781 Z M 156.789062 19.078125 L 161.15625 19.078125 L 161.15625 35.796875 L 157.089844 35.796875 C 156.984375 34.921875 156.894531 34.15625 156.851562 33.476562 C 156.804688 32.800781 156.789062 32.136719 156.789062 31.488281 Z M 156.789062 19.078125 " fill-opacity="1" fill-rule="nonzero"/><path fill="#ffffff" d="M 165.960938 13.714844 L 170.332031 13.714844 L 170.332031 35.796875 L 165.960938 35.796875 Z M 165.960938 13.714844 " fill-opacity="1" fill-rule="nonzero"/><path fill="#ffffff" d="M 180.152344 13.761719 L 203.089844 13.761719 L 203.089844 17.496094 L 180.152344 17.496094 Z M 189.398438 17.027344 L 193.875 17.027344 L 193.875 35.796875 L 189.398438 35.796875 Z M 189.398438 17.027344 " fill-opacity="1" fill-rule="nonzero"/><path fill="#ffffff" d="M 210.425781 13.714844 L 210.425781 17.554688 L 206.058594 17.554688 L 206.058594 13.714844 Z M 206.058594 20.253906 L 210.425781 20.253906 L 210.425781 35.796875 L 206.058594 35.796875 Z M 206.058594 20.253906 " fill-opacity="1" fill-rule="nonzero"/><path fill="#ffffff" d="M 214.792969 19.078125 L 219.164062 19.078125 L 219.164062 35.796875 L 214.792969 35.796875 Z M 226.933594 18.699219 C 227.960938 18.699219 228.921875 18.835938 229.796875 19.109375 C 230.671875 19.378906 231.4375 19.785156 232.085938 20.359375 C 232.734375 20.914062 233.246094 21.636719 233.59375 22.496094 C 233.953125 23.355469 234.132812 24.378906 234.132812 25.570312 L 234.132812 35.796875 L 229.765625 35.796875 L 229.765625 26.335938 C 229.765625 24.921875 229.421875 23.882812 228.742188 23.21875 C 228.066406 22.558594 226.949219 22.226562 225.398438 22.226562 C 224.238281 22.226562 223.183594 22.453125 222.234375 22.902344 C 221.285156 23.355469 220.535156 23.914062 219.945312 24.605469 C 219.359375 25.28125 219.027344 26.007812 218.9375 26.742188 L 218.90625 25.027344 C 219.011719 24.242188 219.285156 23.476562 219.675781 22.738281 C 220.082031 22 220.625 21.320312 221.300781 20.703125 C 221.980469 20.085938 222.792969 19.605469 223.742188 19.242188 C 224.691406 18.882812 225.746094 18.699219 226.933594 18.699219 Z M 241.5 18.699219 C 242.523438 18.699219 243.488281 18.835938 244.363281 19.109375 C 245.234375 19.378906 246.003906 19.785156 246.652344 20.359375 C 247.300781 20.914062 247.8125 21.636719 248.1875 22.496094 C 248.566406 23.355469 248.746094 24.378906 248.746094 25.570312 L 248.746094 35.796875 L 244.378906 35.796875 L 244.378906 26.335938 C 244.378906 24.921875 244.03125 23.882812 243.335938 23.21875 C 242.644531 22.558594 241.515625 22.226562 239.980469 22.226562 C 238.820312 22.226562 237.765625 22.453125 236.816406 22.902344 C 235.867188 23.355469 235.113281 23.914062 234.527344 24.605469 C 233.9375 25.28125 233.621094 26.007812 233.546875 26.742188 L 233.488281 24.921875 C 233.59375 24.183594 233.863281 23.445312 234.300781 22.707031 C 234.722656 21.96875 235.28125 21.292969 235.988281 20.6875 C 236.679688 20.085938 237.492188 19.605469 238.425781 19.242188 C 239.363281 18.882812 240.402344 18.699219 241.546875 18.699219 Z M 241.5 18.699219 " fill-opacity="1" fill-rule="nonzero"/><path fill="#ffffff" d="M 267.332031 30.238281 L 271.566406 30.238281 C 271.382812 31.382812 270.902344 32.40625 270.132812 33.296875 C 269.367188 34.199219 268.3125 34.894531 266.984375 35.421875 C 265.660156 35.933594 264.046875 36.1875 262.136719 36.1875 C 260.011719 36.1875 258.113281 35.839844 256.488281 35.164062 C 254.84375 34.484375 253.566406 33.492188 252.644531 32.179688 C 251.726562 30.886719 251.261719 29.304688 251.261719 27.46875 C 251.261719 25.628906 251.710938 24.046875 252.601562 22.738281 C 253.503906 21.425781 254.753906 20.417969 256.351562 19.726562 C 257.949219 19.03125 259.832031 18.6875 261.984375 18.6875 C 264.140625 18.6875 266.007812 19.03125 267.46875 19.726562 C 268.929688 20.417969 270.011719 21.472656 270.722656 22.875 C 271.429688 24.273438 271.730469 26.066406 271.609375 28.234375 L 255.660156 28.234375 C 255.765625 29.09375 256.09375 29.863281 256.621094 30.554688 C 257.148438 31.246094 257.871094 31.804688 258.777344 32.195312 C 259.679688 32.601562 260.765625 32.800781 262.03125 32.800781 C 263.414062 32.800781 264.574219 32.558594 265.507812 32.074219 C 266.445312 31.59375 267.046875 30.976562 267.300781 30.207031 Z M 261.820312 22.03125 C 260.207031 22.03125 258.898438 22.375 257.886719 23.082031 C 256.878906 23.792969 256.230469 24.664062 255.929688 25.691406 L 267.300781 25.691406 C 267.195312 24.574219 266.65625 23.671875 265.707031 23.007812 C 264.757812 22.347656 263.460938 22.015625 261.820312 22.015625 Z M 261.820312 22.03125 " fill-opacity="1" fill-rule="nonzero"/><path fill="#ffffff" d="M 99.492188 43.808594 C 99.117188 43.464844 98.664062 43.191406 98.152344 43.011719 C 97.640625 42.832031 97.097656 42.742188 96.511719 42.742188 L 91.285156 42.742188 L 91.285156 55.4375 L 92.851562 55.4375 L 92.851562 50.949219 L 96.523438 50.949219 C 97.113281 50.949219 97.65625 50.859375 98.167969 50.679688 C 98.679688 50.496094 99.117188 50.226562 99.507812 49.878906 C 99.882812 49.535156 100.183594 49.097656 100.410156 48.585938 C 100.636719 48.074219 100.726562 47.5 100.726562 46.851562 C 100.726562 46.203125 100.621094 45.617188 100.410156 45.121094 C 100.199219 44.625 99.898438 44.1875 99.507812 43.824219 Z M 98.421875 48.734375 C 97.941406 49.21875 97.292969 49.472656 96.523438 49.472656 L 92.851562 49.472656 L 92.851562 44.203125 L 96.523438 44.203125 C 97.308594 44.203125 97.941406 44.441406 98.421875 44.910156 C 98.90625 45.390625 99.160156 46.023438 99.160156 46.835938 C 99.160156 47.652344 98.921875 48.253906 98.421875 48.734375 Z M 98.421875 48.734375 " fill-opacity="1" fill-rule="nonzero"/><path fill="#ffffff" d="M 105.261719 46.566406 C 105.019531 46.882812 104.824219 47.214844 104.6875 47.558594 C 104.570312 47.847656 104.492188 48.101562 104.433594 48.328125 L 104.433594 45.648438 L 102.867188 45.648438 L 102.867188 55.40625 L 104.433594 55.40625 L 104.433594 49.789062 C 104.523438 49.472656 104.660156 49.15625 104.839844 48.824219 C 105.09375 48.34375 105.441406 47.953125 105.894531 47.621094 C 106.347656 47.289062 106.902344 47.125 107.566406 47.125 L 107.566406 45.464844 C 107.039062 45.464844 106.570312 45.570312 106.195312 45.78125 C 105.820312 45.992188 105.503906 46.25 105.261719 46.582031 Z M 105.261719 46.566406 " fill-opacity="1" fill-rule="nonzero"/><path fill="#ffffff" d="M 117.628906 47.863281 C 117.191406 47.09375 116.601562 46.507812 115.878906 46.097656 C 115.15625 45.675781 114.375 45.480469 113.546875 45.480469 C 112.71875 45.480469 111.933594 45.691406 111.195312 46.097656 C 110.472656 46.519531 109.871094 47.109375 109.433594 47.863281 C 108.980469 48.628906 108.753906 49.519531 108.753906 50.574219 C 108.753906 51.628906 108.980469 52.515625 109.433594 53.285156 C 109.886719 54.050781 110.472656 54.625 111.195312 55.03125 C 111.917969 55.4375 112.703125 55.632812 113.546875 55.632812 C 114.390625 55.632812 115.15625 55.4375 115.878906 55.03125 C 116.601562 54.625 117.191406 54.050781 117.628906 53.285156 C 118.0625 52.515625 118.289062 51.628906 118.289062 50.574219 C 118.289062 49.519531 118.0625 48.628906 117.628906 47.863281 Z M 116.273438 52.53125 C 115.96875 53.074219 115.578125 53.480469 115.097656 53.75 C 114.613281 54.023438 114.101562 54.15625 113.5625 54.15625 C 113.019531 54.15625 112.492188 54.023438 111.992188 53.75 C 111.496094 53.480469 111.105469 53.074219 110.789062 52.53125 C 110.488281 51.988281 110.335938 51.339844 110.335938 50.574219 C 110.335938 49.804688 110.488281 49.125 110.804688 48.585938 C 111.121094 48.042969 111.511719 47.636719 112.007812 47.347656 C 112.492188 47.0625 113.019531 46.925781 113.5625 46.925781 C 114.101562 46.925781 114.613281 47.078125 115.097656 47.363281 C 115.578125 47.652344 115.96875 48.058594 116.273438 48.597656 C 116.574219 49.140625 116.722656 49.789062 116.722656 50.558594 C 116.722656 51.324219 116.574219 51.972656 116.273438 52.515625 Z M 116.273438 52.53125 " fill-opacity="1" fill-rule="nonzero"/><path fill="#ffffff" d="M 131.242188 46.097656 C 130.582031 45.675781 129.78125 45.464844 128.832031 45.464844 C 127.929688 45.464844 127.132812 45.691406 126.410156 46.128906 C 125.6875 46.566406 125.128906 47.183594 124.722656 47.953125 C 124.316406 48.71875 124.105469 49.59375 124.105469 50.574219 C 124.105469 51.550781 124.316406 52.425781 124.738281 53.179688 C 125.160156 53.945312 125.730469 54.535156 126.46875 54.972656 C 127.191406 55.40625 128.019531 55.617188 128.925781 55.617188 C 129.675781 55.617188 130.339844 55.46875 130.925781 55.183594 C 131.5 54.894531 131.980469 54.488281 132.328125 53.992188 C 132.675781 53.496094 132.914062 52.921875 133.019531 52.289062 L 131.558594 52.289062 C 131.394531 52.847656 131.078125 53.300781 130.609375 53.644531 C 130.144531 53.992188 129.585938 54.15625 128.925781 54.15625 C 128.320312 54.15625 127.792969 54.023438 127.328125 53.75 C 126.859375 53.480469 126.484375 53.101562 126.199219 52.621094 C 125.910156 52.140625 125.730469 51.582031 125.671875 50.933594 L 133.097656 50.933594 C 133.15625 49.746094 133.035156 48.75 132.71875 47.9375 C 132.402344 47.125 131.90625 46.507812 131.257812 46.085938 Z M 125.761719 49.546875 C 125.941406 48.734375 126.304688 48.101562 126.859375 47.636719 C 127.402344 47.167969 128.082031 46.925781 128.894531 46.925781 C 129.570312 46.925781 130.160156 47.152344 130.65625 47.589844 C 131.152344 48.027344 131.441406 48.691406 131.484375 49.546875 Z M 125.761719 49.546875 " fill-opacity="1" fill-rule="nonzero"/><path fill="#ffffff" d="M 137.765625 47.363281 C 138.261719 47.078125 138.789062 46.925781 139.347656 46.925781 C 140.039062 46.925781 140.65625 47.136719 141.199219 47.558594 C 141.742188 47.980469 142.132812 48.570312 142.34375 49.308594 L 143.777344 49.308594 C 143.671875 48.507812 143.414062 47.832031 142.976562 47.257812 C 142.554688 46.6875 142.027344 46.25 141.394531 45.933594 C 140.761719 45.617188 140.070312 45.464844 139.332031 45.464844 C 138.503906 45.464844 137.71875 45.675781 136.984375 46.085938 C 136.257812 46.507812 135.65625 47.09375 135.21875 47.847656 C 134.769531 48.613281 134.542969 49.503906 134.542969 50.558594 C 134.542969 51.613281 134.769531 52.5 135.21875 53.269531 C 135.671875 54.035156 136.257812 54.609375 136.984375 55.015625 C 137.707031 55.421875 138.488281 55.617188 139.332031 55.617188 C 140.070312 55.617188 140.761719 55.46875 141.394531 55.167969 C 142.027344 54.867188 142.570312 54.414062 142.992188 53.839844 C 143.414062 53.269531 143.671875 52.574219 143.761719 51.761719 L 142.359375 51.761719 C 142.132812 52.515625 141.773438 53.101562 141.273438 53.523438 C 140.777344 53.945312 140.128906 54.15625 139.332031 54.15625 C 138.761719 54.15625 138.234375 54.023438 137.734375 53.734375 C 137.253906 53.449219 136.847656 53.042969 136.5625 52.5 C 136.257812 51.957031 136.109375 51.3125 136.109375 50.558594 C 136.109375 49.804688 136.257812 49.140625 136.5625 48.597656 C 136.863281 48.058594 137.253906 47.652344 137.75 47.363281 Z M 137.765625 47.363281 " fill-opacity="1" fill-rule="nonzero"/><path fill="#ffffff" d="M 148.730469 43.117188 L 147.179688 43.117188 L 147.179688 45.664062 L 145.085938 45.664062 L 145.085938 47.125 L 147.179688 47.125 L 147.179688 54.246094 L 146.082031 54.246094 L 146.082031 55.421875 L 148.730469 55.421875 L 148.730469 47.125 L 150.824219 47.125 L 150.824219 45.664062 L 148.730469 45.664062 Z M 148.730469 43.117188 " fill-opacity="1" fill-rule="nonzero"/><path fill="#ffffff" d="M 164.109375 53.855469 L 158.640625 42.726562 L 157.074219 42.726562 L 157.074219 55.421875 L 158.640625 55.421875 L 158.640625 46.160156 L 163.328125 55.421875 L 164.878906 55.421875 L 169.578125 46.144531 L 169.578125 55.421875 L 171.128906 55.421875 L 171.128906 42.726562 L 169.578125 42.726562 Z M 164.109375 53.855469 " fill-opacity="1" fill-rule="nonzero"/><path fill="#ffffff" d="M 180.980469 48.359375 C 180.964844 48.238281 180.933594 48.117188 180.90625 48.011719 C 180.722656 47.242188 180.40625 46.625 179.925781 46.160156 C 179.441406 45.691406 178.75 45.464844 177.847656 45.464844 C 177.019531 45.464844 176.265625 45.691406 175.585938 46.128906 C 174.910156 46.566406 174.382812 47.183594 173.992188 47.953125 C 173.597656 48.71875 173.402344 49.59375 173.402344 50.574219 C 173.402344 51.550781 173.597656 52.425781 173.976562 53.179688 C 174.351562 53.945312 174.878906 54.535156 175.511719 54.972656 C 176.160156 55.40625 176.867188 55.617188 177.636719 55.617188 C 178.359375 55.617188 178.929688 55.453125 179.398438 55.121094 C 179.851562 54.789062 180.210938 54.351562 180.46875 53.828125 C 180.695312 53.359375 180.859375 52.863281 180.964844 52.351562 L 180.964844 53.464844 C 180.964844 53.675781 180.964844 53.929688 181.011719 54.246094 C 181.039062 54.5625 181.070312 54.957031 181.101562 55.421875 L 182.53125 55.421875 L 182.53125 45.664062 L 180.964844 45.664062 L 180.964844 48.359375 Z M 180.664062 52.351562 C 180.453125 52.890625 180.136719 53.328125 179.699219 53.644531 C 179.261719 53.976562 178.71875 54.128906 178.042969 54.128906 C 177.457031 54.128906 176.929688 53.976562 176.476562 53.675781 C 176.007812 53.375 175.648438 52.953125 175.375 52.410156 C 175.105469 51.867188 174.96875 51.25 174.96875 50.558594 C 174.96875 49.519531 175.242188 48.660156 175.769531 47.96875 C 176.296875 47.273438 177.0625 46.941406 178.027344 46.941406 C 178.675781 46.941406 179.21875 47.09375 179.652344 47.394531 C 180.089844 47.695312 180.421875 48.117188 180.632812 48.660156 C 180.84375 49.203125 180.949219 49.835938 180.949219 50.542969 C 180.949219 51.191406 180.84375 51.792969 180.632812 52.335938 Z M 180.664062 52.351562 " fill-opacity="1" fill-rule="nonzero"/><path fill="#ffffff" d="M 192.457031 46.386719 C 192.171875 46.085938 191.824219 45.859375 191.402344 45.707031 C 190.980469 45.558594 190.515625 45.464844 190.003906 45.464844 C 189.566406 45.464844 189.144531 45.558594 188.738281 45.722656 C 188.34375 45.886719 187.984375 46.128906 187.683594 46.460938 C 187.382812 46.777344 187.125 47.152344 186.914062 47.605469 C 186.792969 47.863281 186.703125 48.148438 186.628906 48.449219 L 186.628906 45.675781 L 185.0625 45.675781 L 185.0625 55.4375 L 186.628906 55.4375 L 186.628906 49.667969 C 186.71875 49.277344 186.867188 48.902344 187.066406 48.585938 C 187.351562 48.101562 187.726562 47.742188 188.195312 47.453125 C 188.644531 47.183594 189.144531 47.046875 189.6875 47.046875 C 190.394531 47.046875 190.921875 47.242188 191.265625 47.621094 C 191.613281 47.996094 191.792969 48.570312 191.792969 49.324219 L 191.792969 55.453125 L 193.359375 55.453125 L 193.359375 48.929688 C 193.359375 48.402344 193.285156 47.921875 193.121094 47.5 C 192.96875 47.078125 192.742188 46.714844 192.457031 46.414062 Z M 192.457031 46.386719 " fill-opacity="1" fill-rule="nonzero"/><path fill="#ffffff" d="M 202.910156 48.359375 C 202.894531 48.238281 202.867188 48.117188 202.835938 48.011719 C 202.65625 47.242188 202.339844 46.625 201.855469 46.160156 C 201.375 45.691406 200.679688 45.464844 199.777344 45.464844 C 198.949219 45.464844 198.195312 45.691406 197.519531 46.128906 C 196.839844 46.566406 196.3125 47.183594 195.921875 47.953125 C 195.53125 48.71875 195.335938 49.59375 195.335938 50.574219 C 195.335938 51.550781 195.53125 52.425781 195.90625 53.179688 C 196.28125 53.945312 196.808594 54.535156 197.441406 54.972656 C 198.089844 55.40625 198.796875 55.617188 199.566406 55.617188 C 200.289062 55.617188 200.863281 55.453125 201.328125 55.121094 C 201.78125 54.789062 202.140625 54.351562 202.398438 53.828125 C 202.625 53.359375 202.789062 52.863281 202.894531 52.351562 L 202.894531 53.464844 C 202.894531 53.675781 202.894531 53.929688 202.941406 54.246094 C 202.972656 54.5625 203 54.957031 203.03125 55.421875 L 204.460938 55.421875 L 204.460938 45.664062 L 202.894531 45.664062 L 202.894531 48.359375 Z M 202.59375 52.351562 C 202.382812 52.890625 202.066406 53.328125 201.628906 53.644531 C 201.195312 53.976562 200.652344 54.128906 199.972656 54.128906 C 199.386719 54.128906 198.859375 53.976562 198.40625 53.675781 C 197.941406 53.375 197.578125 52.953125 197.308594 52.410156 C 197.035156 51.867188 196.902344 51.25 196.902344 50.558594 C 196.902344 49.519531 197.171875 48.660156 197.699219 47.96875 C 198.226562 47.273438 198.996094 46.941406 199.957031 46.941406 C 200.605469 46.941406 201.148438 47.09375 201.585938 47.394531 C 202.023438 47.695312 202.351562 48.117188 202.5625 48.660156 C 202.773438 49.203125 202.878906 49.835938 202.878906 50.542969 C 202.878906 51.191406 202.773438 51.792969 202.5625 52.335938 Z M 202.59375 52.351562 " fill-opacity="1" fill-rule="nonzero"/><path fill="#ffffff" d="M 211.132812 45.511719 C 210.9375 45.480469 210.726562 45.464844 210.5 45.464844 C 209.777344 45.464844 209.117188 45.632812 208.515625 45.980469 C 207.894531 46.324219 207.414062 46.808594 207.023438 47.441406 C 206.644531 48.074219 206.449219 48.824219 206.449219 49.699219 C 206.449219 50.574219 206.644531 51.324219 207.023438 51.945312 C 207.398438 52.5625 207.910156 53.042969 208.527344 53.375 C 208.710938 53.464844 208.890625 53.539062 209.070312 53.617188 C 208.816406 53.617188 208.558594 53.617188 208.289062 53.660156 C 207.851562 53.722656 207.472656 53.886719 207.171875 54.140625 C 206.871094 54.398438 206.722656 54.773438 206.722656 55.273438 C 206.722656 55.527344 206.765625 55.769531 206.871094 55.980469 C 206.976562 56.191406 207.128906 56.355469 207.339844 56.507812 C 207.550781 56.644531 207.804688 56.761719 208.136719 56.824219 C 208.453125 56.898438 208.828125 56.929688 209.265625 56.929688 L 211.226562 56.929688 C 211.949219 56.929688 212.476562 57.078125 212.835938 57.394531 C 213.199219 57.710938 213.378906 58.210938 213.378906 58.902344 L 213.378906 59.339844 L 214.945312 59.339844 L 214.945312 58.527344 C 214.945312 57.742188 214.78125 57.125 214.433594 56.671875 C 214.101562 56.222656 213.648438 55.90625 213.09375 55.707031 C 212.535156 55.511719 211.917969 55.421875 211.238281 55.421875 L 209.207031 55.421875 C 208.90625 55.421875 208.679688 55.363281 208.527344 55.242188 C 208.378906 55.121094 208.304688 54.957031 208.304688 54.761719 C 208.304688 54.429688 208.5 54.203125 208.875 54.097656 C 209.25 53.992188 209.808594 53.917969 210.5 53.886719 C 211.226562 53.886719 211.886719 53.722656 212.488281 53.390625 C 213.109375 53.058594 213.589844 52.574219 213.964844 51.957031 C 214.34375 51.339844 214.523438 50.585938 214.523438 49.714844 C 214.523438 49.21875 214.449219 48.765625 214.296875 48.34375 C 214.148438 47.921875 213.921875 47.546875 213.636719 47.199219 C 213.4375 46.972656 213.199219 46.761719 212.925781 46.582031 C 213.242188 46.746094 213.605469 46.898438 214.011719 47.046875 C 214.570312 47.257812 215.125 47.363281 215.683594 47.363281 L 215.683594 45.675781 L 211.722656 45.675781 C 211.542969 45.617188 211.34375 45.558594 211.148438 45.527344 Z M 212.625 48.207031 C 212.851562 48.613281 212.972656 49.113281 212.972656 49.699219 C 212.972656 50.285156 212.851562 50.785156 212.625 51.191406 C 212.382812 51.597656 212.082031 51.898438 211.722656 52.109375 C 211.34375 52.320312 210.953125 52.425781 210.515625 52.425781 C 210.082031 52.425781 209.6875 52.320312 209.3125 52.109375 C 208.933594 51.898438 208.632812 51.597656 208.394531 51.191406 C 208.152344 50.785156 208.046875 50.285156 208.046875 49.699219 C 208.046875 49.113281 208.167969 48.597656 208.394531 48.191406 C 208.632812 47.785156 208.933594 47.484375 209.3125 47.257812 C 209.6875 47.046875 210.09375 46.941406 210.515625 46.941406 C 210.9375 46.941406 211.34375 47.046875 211.722656 47.257812 C 212.097656 47.46875 212.398438 47.785156 212.625 48.191406 Z M 212.625 48.207031 " fill-opacity="1" fill-rule="nonzero"/><path fill="#ffffff" d="M 224.101562 46.097656 C 223.441406 45.675781 222.640625 45.464844 221.691406 45.464844 C 220.789062 45.464844 219.992188 45.691406 219.269531 46.128906 C 218.546875 46.566406 217.988281 47.183594 217.582031 47.953125 C 217.175781 48.71875 216.964844 49.59375 216.964844 50.574219 C 216.964844 51.550781 217.175781 52.425781 217.597656 53.179688 C 218.019531 53.945312 218.589844 54.535156 219.328125 54.972656 C 220.050781 55.40625 220.878906 55.617188 221.785156 55.617188 C 222.535156 55.617188 223.199219 55.46875 223.785156 55.183594 C 224.359375 54.894531 224.839844 54.488281 225.1875 53.992188 C 225.535156 53.496094 225.773438 52.921875 225.878906 52.289062 L 224.417969 52.289062 C 224.253906 52.847656 223.9375 53.300781 223.46875 53.644531 C 223.003906 53.992188 222.445312 54.15625 221.785156 54.15625 C 221.179688 54.15625 220.652344 54.023438 220.1875 53.75 C 219.71875 53.480469 219.34375 53.101562 219.058594 52.621094 C 218.769531 52.140625 218.589844 51.582031 218.53125 50.933594 L 225.957031 50.933594 C 226.015625 49.746094 225.894531 48.75 225.578125 47.9375 C 225.261719 47.125 224.765625 46.507812 224.117188 46.085938 Z M 218.621094 49.546875 C 218.800781 48.734375 219.164062 48.101562 219.71875 47.636719 C 220.261719 47.167969 220.941406 46.925781 221.753906 46.925781 C 222.429688 46.925781 223.019531 47.152344 223.515625 47.589844 C 224.011719 48.027344 224.300781 48.691406 224.34375 49.546875 Z M 218.621094 49.546875 " fill-opacity="1" fill-rule="nonzero"/><path fill="#ffffff" d="M 241.90625 46.386719 C 241.621094 46.085938 241.273438 45.859375 240.851562 45.707031 C 240.429688 45.558594 239.964844 45.464844 239.453125 45.464844 C 239.015625 45.464844 238.59375 45.558594 238.1875 45.722656 C 237.792969 45.886719 237.433594 46.128906 237.132812 46.460938 C 236.832031 46.777344 236.574219 47.152344 236.363281 47.605469 C 236.289062 47.769531 236.226562 47.9375 236.167969 48.117188 C 236.121094 47.890625 236.078125 47.679688 236.003906 47.46875 C 235.851562 47.046875 235.625 46.6875 235.339844 46.386719 C 235.054688 46.085938 234.707031 45.859375 234.285156 45.707031 C 233.863281 45.558594 233.398438 45.464844 232.882812 45.464844 C 232.449219 45.464844 232.027344 45.558594 231.621094 45.722656 C 231.226562 45.886719 230.867188 46.128906 230.566406 46.460938 C 230.265625 46.777344 230.007812 47.152344 229.796875 47.605469 C 229.675781 47.863281 229.585938 48.148438 229.511719 48.449219 L 229.511719 45.675781 L 227.945312 45.675781 L 227.945312 55.4375 L 229.511719 55.4375 L 229.511719 49.667969 C 229.601562 49.277344 229.75 48.902344 229.949219 48.585938 C 230.234375 48.101562 230.609375 47.742188 231.078125 47.453125 C 231.527344 47.183594 232.027344 47.046875 232.566406 47.046875 C 233.277344 47.046875 233.804688 47.242188 234.148438 47.621094 C 234.496094 47.996094 234.675781 48.570312 234.675781 49.324219 L 234.675781 55.453125 L 236.242188 55.453125 L 236.242188 49.171875 C 236.320312 48.960938 236.410156 48.765625 236.53125 48.585938 C 236.816406 48.101562 237.191406 47.742188 237.660156 47.453125 C 238.109375 47.183594 238.609375 47.046875 239.152344 47.046875 C 239.859375 47.046875 240.386719 47.242188 240.730469 47.621094 C 241.078125 47.996094 241.257812 48.570312 241.257812 49.324219 L 241.257812 55.453125 L 242.824219 55.453125 L 242.824219 48.929688 C 242.824219 48.402344 242.75 47.921875 242.585938 47.5 C 242.433594 47.078125 242.207031 46.714844 241.921875 46.414062 Z M 241.90625 46.386719 " fill-opacity="1" fill-rule="nonzero"/><path fill="#ffffff" d="M 251.921875 46.097656 C 251.261719 45.675781 250.460938 45.464844 249.511719 45.464844 C 248.609375 45.464844 247.8125 45.691406 247.089844 46.128906 C 246.367188 46.566406 245.808594 47.183594 245.402344 47.953125 C 244.996094 48.71875 244.785156 49.59375 244.785156 50.574219 C 244.785156 51.550781 244.996094 52.425781 245.417969 53.179688 C 245.839844 53.945312 246.410156 54.535156 247.148438 54.972656 C 247.871094 55.40625 248.699219 55.617188 249.605469 55.617188 C 250.355469 55.617188 251.019531 55.46875 251.605469 55.183594 C 252.179688 54.894531 252.660156 54.488281 253.007812 53.992188 C 253.355469 53.496094 253.59375 52.921875 253.699219 52.289062 L 252.238281 52.289062 C 252.074219 52.847656 251.757812 53.300781 251.289062 53.644531 C 250.824219 53.992188 250.265625 54.15625 249.605469 54.15625 C 249 54.15625 248.472656 54.023438 248.007812 53.75 C 247.539062 53.480469 247.164062 53.101562 246.878906 52.621094 C 246.589844 52.140625 246.410156 51.582031 246.351562 50.933594 L 253.777344 50.933594 C 253.835938 49.746094 253.714844 48.75 253.398438 47.9375 C 253.082031 47.125 252.585938 46.507812 251.9375 46.085938 Z M 246.441406 49.546875 C 246.621094 48.734375 246.984375 48.101562 247.539062 47.636719 C 248.082031 47.167969 248.761719 46.925781 249.574219 46.925781 C 250.25 46.925781 250.839844 47.152344 251.335938 47.589844 C 251.832031 48.027344 252.121094 48.691406 252.164062 49.546875 Z M 246.441406 49.546875 " fill-opacity="1" fill-rule="nonzero"/><path fill="#ffffff" d="M 263.175781 46.386719 C 262.890625 46.085938 262.542969 45.859375 262.121094 45.707031 C 261.699219 45.558594 261.230469 45.464844 260.71875 45.464844 C 260.28125 45.464844 259.859375 45.558594 259.453125 45.722656 C 259.0625 45.886719 258.703125 46.128906 258.398438 46.460938 C 258.097656 46.777344 257.84375 47.152344 257.632812 47.605469 C 257.511719 47.863281 257.421875 48.148438 257.347656 48.449219 L 257.347656 45.675781 L 255.78125 45.675781 L 255.78125 55.4375 L 257.347656 55.4375 L 257.347656 49.667969 C 257.4375 49.277344 257.585938 48.902344 257.78125 48.585938 C 258.070312 48.101562 258.445312 47.742188 258.914062 47.453125 C 259.363281 47.183594 259.859375 47.046875 260.402344 47.046875 C 261.113281 47.046875 261.636719 47.242188 261.984375 47.621094 C 262.332031 47.996094 262.511719 48.570312 262.511719 49.324219 L 262.511719 55.453125 L 264.078125 55.453125 L 264.078125 48.929688 C 264.078125 48.402344 264.003906 47.921875 263.835938 47.5 C 263.6875 47.078125 263.460938 46.714844 263.175781 46.414062 Z M 263.175781 46.386719 " fill-opacity="1" fill-rule="nonzero"/><path fill="#ffffff" d="M 271.671875 45.664062 L 269.578125 45.664062 L 269.578125 43.117188 L 268.011719 43.117188 L 268.011719 45.664062 L 265.917969 45.664062 L 265.917969 47.125 L 268.011719 47.125 L 268.011719 54.246094 L 266.925781 54.246094 L 266.925781 55.421875 L 269.578125 55.421875 L 269.578125 47.125 L 271.671875 47.125 Z M 271.671875 45.664062 " fill-opacity="1" fill-rule="nonzero"/><path fill="#ffffff" d="M 120.445312 57.921875 C 120.445312 57.921875 120.398438 58.027344 120.339844 58.027344 L 118.289062 58.027344 L 118.289062 59.324219 L 121.046875 59.324219 C 121.574219 59.324219 122.011719 58.886719 122.011719 58.359375 L 122.011719 45.648438 L 120.445312 45.648438 Z M 120.445312 57.921875 " fill-opacity="1" fill-rule="nonzero"/><path fill="#ffffff" d="M 120.398438 41.761719 L 121.996094 41.761719 L 121.996094 43.660156 L 120.398438 43.660156 Z M 120.398438 41.761719 " fill-opacity="1" fill-rule="nonzero"/></svg>