<svg xmlns="http://www.w3.org/2000/svg" xmlns:xlink="http://www.w3.org/1999/xlink" width="500" zoomAndPan="magnify" viewBox="0 0 375 195.000001" height="260" preserveAspectRatio="xMidYMid meet" version="1.0"><defs><clipPath id="d1a8235227"><path d="M 57 158 L 99 158 L 99 194.003906 L 57 194.003906 Z M 57 158 " clip-rule="nonzero"/></clipPath><clipPath id="c4e8e07910"><path d="M 328 158 L 370 158 L 370 194.003906 L 328 194.003906 Z M 328 158 " clip-rule="nonzero"/></clipPath></defs><path fill="#ffffff" d="M 241.535156 51.472656 L 241.535156 0 L 190.0625 0 L 190.0625 25.910156 L 184.929688 25.910156 L 184.929688 0 L 133.457031 0 L 133.457031 51.472656 L 159.203125 51.472656 L 159.203125 56.996094 L 133.457031 56.996094 L 133.457031 108.46875 L 184.929688 108.46875 L 184.929688 82.539062 L 190.0625 82.539062 L 190.0625 108.46875 L 241.535156 108.46875 L 241.535156 56.996094 L 215.8125 56.996094 L 215.8125 51.472656 Z M 210.082031 76.789062 L 164.933594 76.789062 L 164.933594 31.660156 L 210.082031 31.660156 Z M 210.082031 76.789062 " fill-opacity="1" fill-rule="nonzero"/><path fill="#ffffff" d="M 5.566406 193.183594 L 5.566406 149.285156 L 35.355469 149.285156 C 38.746094 149.285156 41.699219 149.757812 44.207031 150.683594 C 46.710938 151.605469 48.683594 153.066406 50.078125 155.035156 C 51.472656 157.007812 52.171875 159.53125 52.171875 162.589844 C 52.171875 164.664062 51.800781 166.429688 51.082031 167.886719 C 50.367188 169.347656 49.359375 170.515625 48.066406 171.421875 C 46.773438 172.324219 45.292969 173.023438 43.632812 173.492188 C 41.945312 173.964844 40.160156 174.273438 38.273438 174.417969 L 37.328125 173.882812 C 40.488281 173.925781 43.097656 174.191406 45.128906 174.664062 C 47.164062 175.136719 48.703125 176 49.707031 177.25 C 50.734375 178.503906 51.226562 180.332031 51.226562 182.773438 L 51.226562 193.226562 L 42.195312 193.226562 L 42.195312 183.390625 C 42.195312 181.726562 41.90625 180.414062 41.3125 179.488281 C 40.714844 178.566406 39.667969 177.90625 38.148438 177.558594 C 36.628906 177.191406 34.453125 177.023438 31.597656 177.023438 L 14.597656 177.023438 L 14.597656 193.246094 L 5.566406 193.246094 Z M 14.597656 169.902344 L 35.355469 169.902344 C 37.882812 169.902344 39.832031 169.285156 41.167969 168.074219 C 42.5 166.863281 43.160156 165.199219 43.160156 163.125 C 43.160156 161.050781 42.480469 159.613281 41.167969 158.585938 C 39.832031 157.539062 37.902344 157.027344 35.355469 157.027344 L 14.597656 157.027344 L 14.597656 169.921875 Z M 14.597656 169.902344 " fill-opacity="1" fill-rule="nonzero"/><g clip-path="url(#d1a8235227)"><path fill="#ffffff" d="M 89.949219 181.992188 L 98.492188 181.992188 C 98.121094 184.292969 97.179688 186.367188 95.617188 188.175781 C 94.058594 189.980469 91.941406 191.417969 89.273438 192.445312 C 86.605469 193.492188 83.339844 194.003906 79.5 194.003906 C 75.207031 194.003906 71.410156 193.308594 68.105469 191.929688 C 64.800781 190.554688 62.234375 188.542969 60.363281 185.9375 C 58.515625 183.308594 57.59375 180.144531 57.59375 176.429688 C 57.59375 172.714844 58.496094 169.550781 60.300781 166.902344 C 62.109375 164.253906 64.636719 162.242188 67.859375 160.824219 C 71.082031 159.429688 74.878906 158.730469 79.234375 158.730469 C 83.585938 158.730469 87.34375 159.429688 90.300781 160.824219 C 93.234375 162.222656 95.410156 164.335938 96.847656 167.171875 C 98.265625 170.003906 98.882812 173.597656 98.65625 177.992188 L 66.503906 177.992188 C 66.730469 179.714844 67.367188 181.277344 68.433594 182.671875 C 69.5 184.066406 70.9375 185.175781 72.765625 185.996094 C 74.59375 186.820312 76.789062 187.210938 79.316406 187.210938 C 82.128906 187.210938 84.46875 186.714844 86.335938 185.75 C 88.207031 184.785156 89.417969 183.511719 89.972656 181.992188 Z M 78.824219 165.445312 C 75.558594 165.445312 72.910156 166.164062 70.875 167.582031 C 68.84375 168.996094 67.53125 170.761719 66.933594 172.835938 L 89.867188 172.835938 C 89.644531 170.578125 88.574219 168.773438 86.644531 167.4375 C 84.714844 166.101562 82.109375 165.425781 78.800781 165.425781 Z M 78.824219 165.445312 " fill-opacity="1" fill-rule="nonzero"/></g><path fill="#ffffff" d="M 121.878906 193.921875 C 118.53125 193.921875 115.492188 193.183594 112.761719 191.726562 C 110.03125 190.246094 107.855469 188.195312 106.253906 185.546875 C 104.652344 182.898438 103.851562 179.839844 103.851562 176.347656 C 103.851562 172.855469 104.671875 169.675781 106.292969 167.046875 C 107.914062 164.417969 110.132812 162.386719 112.90625 160.90625 C 115.675781 159.429688 118.839844 158.710938 122.371094 158.710938 C 126.25 158.710938 129.390625 159.492188 131.773438 161.050781 C 134.15625 162.613281 135.878906 164.726562 136.96875 167.394531 C 138.058594 170.066406 138.589844 173.042969 138.589844 176.347656 C 138.589844 178.339844 138.28125 180.371094 137.644531 182.425781 C 137.007812 184.476562 136.042969 186.386719 134.730469 188.132812 C 133.417969 189.878906 131.691406 191.273438 129.578125 192.34375 C 127.441406 193.410156 124.894531 193.945312 121.917969 193.945312 Z M 124.730469 187.148438 C 127.402344 187.148438 129.699219 186.695312 131.652344 185.792969 C 133.601562 184.890625 135.078125 183.617188 136.125 181.992188 C 137.171875 180.371094 137.6875 178.484375 137.6875 176.367188 C 137.6875 174.070312 137.152344 172.097656 136.085938 170.496094 C 135.019531 168.894531 133.539062 167.664062 131.609375 166.839844 C 129.679688 166 127.402344 165.589844 124.730469 165.589844 C 120.972656 165.589844 118.058594 166.574219 115.984375 168.546875 C 113.910156 170.515625 112.863281 173.125 112.863281 176.390625 C 112.863281 178.566406 113.355469 180.453125 114.363281 182.054688 C 115.347656 183.65625 116.746094 184.910156 118.53125 185.8125 C 120.316406 186.714844 122.390625 187.167969 124.730469 187.167969 Z M 137.6875 159.46875 L 146.515625 159.46875 L 146.515625 193.183594 L 138.304688 193.183594 C 138.078125 191.417969 137.914062 189.859375 137.832031 188.503906 C 137.75 187.148438 137.6875 185.8125 137.6875 184.5 Z M 137.6875 159.46875 " fill-opacity="1" fill-rule="nonzero"/><path fill="#ffffff" d="M 156.1875 148.648438 L 165.015625 148.648438 L 165.015625 193.183594 L 156.1875 193.183594 Z M 156.1875 148.648438 " fill-opacity="1" fill-rule="nonzero"/><path fill="#ffffff" d="M 184.828125 148.648438 L 231.105469 148.648438 L 231.105469 156.183594 L 184.828125 156.183594 Z M 203.492188 155.242188 L 212.527344 155.242188 L 212.527344 193.203125 L 203.492188 193.203125 Z M 203.492188 155.242188 " fill-opacity="1" fill-rule="nonzero"/><path fill="#ffffff" d="M 245.890625 149.039062 L 245.890625 156.78125 L 237.0625 156.78125 L 237.0625 149.039062 Z M 237.0625 162.222656 L 245.890625 162.222656 L 245.890625 193.183594 L 237.0625 193.183594 Z M 237.0625 162.222656 " fill-opacity="1" fill-rule="nonzero"/><path fill="#ffffff" d="M 254.71875 159.46875 L 263.546875 159.46875 L 263.546875 193.183594 L 254.71875 193.183594 Z M 279.210938 158.730469 C 281.285156 158.730469 283.214844 159 284.980469 159.550781 C 286.75 160.085938 288.289062 160.929688 289.601562 162.058594 C 290.917969 163.1875 291.921875 164.625 292.660156 166.371094 C 293.378906 168.113281 293.75 170.1875 293.75 172.570312 L 293.75 193.203125 L 284.921875 193.203125 L 284.921875 174.128906 C 284.921875 171.277344 284.222656 169.183594 282.847656 167.847656 C 281.472656 166.511719 279.210938 165.835938 276.09375 165.835938 C 273.730469 165.835938 271.617188 166.289062 269.707031 167.191406 C 267.796875 168.09375 266.277344 169.242188 265.085938 170.621094 C 263.917969 171.996094 263.238281 173.433594 263.054688 174.929688 L 262.992188 171.460938 C 263.21875 169.878906 263.730469 168.339844 264.554688 166.839844 C 265.375 165.34375 266.460938 163.988281 267.839844 162.734375 C 269.214844 161.484375 270.855469 160.519531 272.765625 159.777344 C 274.675781 159.058594 276.8125 158.691406 279.214844 158.691406 Z M 308.59375 158.730469 C 310.667969 158.730469 312.597656 159 314.363281 159.550781 C 316.128906 160.085938 317.667969 160.929688 318.984375 162.058594 C 320.296875 163.1875 321.324219 164.625 322.0625 166.371094 C 322.800781 168.113281 323.191406 170.1875 323.191406 172.570312 L 323.191406 193.203125 L 314.363281 193.203125 L 314.363281 174.128906 C 314.363281 171.277344 313.664062 169.183594 312.269531 167.847656 C 310.871094 166.511719 308.613281 165.835938 305.492188 165.835938 C 303.132812 165.835938 301.019531 166.289062 299.109375 167.191406 C 297.199219 168.09375 295.679688 169.242188 294.488281 170.621094 C 293.316406 171.996094 292.660156 173.433594 292.515625 174.929688 L 292.375 171.277344 C 292.597656 169.777344 293.132812 168.300781 293.996094 166.800781 C 294.859375 165.300781 295.988281 163.945312 297.382812 162.734375 C 298.78125 161.523438 300.421875 160.539062 302.3125 159.820312 C 304.179688 159.101562 306.273438 158.730469 308.59375 158.730469 Z M 308.59375 158.730469 " fill-opacity="1" fill-rule="nonzero"/><g clip-path="url(#c4e8e07910)"><path fill="#ffffff" d="M 360.683594 181.992188 L 369.222656 181.992188 C 368.855469 184.292969 367.910156 186.367188 366.351562 188.175781 C 364.789062 189.980469 362.675781 191.417969 360.003906 192.445312 C 357.335938 193.492188 354.070312 194.003906 350.234375 194.003906 C 345.941406 194.003906 342.144531 193.308594 338.835938 191.929688 C 335.53125 190.554688 332.964844 188.542969 331.097656 185.9375 C 329.25 183.308594 328.324219 180.144531 328.324219 176.429688 C 328.324219 172.714844 329.226562 169.550781 331.035156 166.902344 C 332.84375 164.253906 335.367188 162.242188 338.589844 160.824219 C 341.8125 159.429688 345.613281 158.730469 349.964844 158.730469 C 354.316406 158.730469 358.074219 159.429688 361.03125 160.824219 C 363.96875 162.222656 366.144531 164.335938 367.582031 167.171875 C 369 170.003906 369.613281 173.597656 369.386719 177.992188 L 337.234375 177.992188 C 337.460938 179.714844 338.097656 181.277344 339.164062 182.671875 C 340.234375 184.066406 341.671875 185.175781 343.496094 185.996094 C 345.324219 186.820312 347.523438 187.210938 350.046875 187.210938 C 352.859375 187.210938 355.199219 186.714844 357.070312 185.75 C 358.9375 184.785156 360.148438 183.511719 360.703125 181.992188 Z M 349.554688 165.445312 C 346.289062 165.445312 343.640625 166.164062 341.609375 167.582031 C 339.578125 168.996094 338.261719 170.761719 337.667969 172.835938 L 360.601562 172.835938 C 360.375 170.578125 359.308594 168.773438 357.378906 167.4375 C 355.449219 166.101562 352.839844 165.425781 349.535156 165.425781 Z M 349.554688 165.445312 " fill-opacity="1" fill-rule="nonzero"/></g></svg>